<?xml version="1.0" encoding="utf-8"?>
<!-- Generator: Adobe Illustrator 26.1.0, SVG Export Plug-In . SVG Version: 6.00 Build 0)  -->
<svg version="1.1" id="Layer_1" xmlns="http://www.w3.org/2000/svg" xmlns:xlink="http://www.w3.org/1999/xlink" x="0px" y="0px"
	 viewBox="0 0 749.19 166.89" style="enable-background:new 0 0 749.19 166.89;" xml:space="preserve">
<style type="text/css">
	.st0{fill:#8A2387;}
	.st1{fill:#E94057;}
	.st2{fill:#F27121;}
	.st3{fill:none;stroke:url(#SVGID_1_);stroke-width:7;stroke-linecap:round;stroke-linejoin:round;stroke-miterlimit:10;}
	
		.st4{fill:none;stroke:url(#SVGID_00000036246114973997512010000006187501409750583438_);stroke-width:7;stroke-linecap:round;stroke-linejoin:round;stroke-miterlimit:10;}
	
		.st5{fill:none;stroke:url(#SVGID_00000096030834460395502410000001824912973912259716_);stroke-width:7;stroke-linecap:round;stroke-linejoin:round;stroke-miterlimit:10;}
	
		.st6{fill:none;stroke:url(#SVGID_00000173872154068647467830000005900636058046700715_);stroke-width:7;stroke-linecap:round;stroke-linejoin:round;stroke-miterlimit:10;}
	
		.st7{fill:none;stroke:url(#SVGID_00000040548614613243483150000014381159095169721735_);stroke-width:7;stroke-linecap:round;stroke-linejoin:round;stroke-miterlimit:10;}
	
		.st8{fill:none;stroke:url(#SVGID_00000102530326556707066500000007631841264171617176_);stroke-width:7;stroke-linecap:round;stroke-linejoin:round;stroke-miterlimit:10;}
	
		.st9{fill:none;stroke:url(#SVGID_00000052816843999517616670000011967317275149626521_);stroke-width:7;stroke-linecap:round;stroke-linejoin:round;stroke-miterlimit:10;}
	
		.st10{fill:none;stroke:url(#SVGID_00000178899397518045319790000008243126761655833226_);stroke-width:7;stroke-linejoin:round;stroke-miterlimit:10;}
	.st11{fill:none;stroke:url(#SVGID_00000163049675674449899290000008639633717162912667_);stroke-width:7;stroke-miterlimit:10;}
	
		.st12{fill:none;stroke:url(#SVGID_00000175284374681385182140000008348003260203875462_);stroke-width:7;stroke-linejoin:round;stroke-miterlimit:10;}
	
		.st13{fill:none;stroke:url(#SVGID_00000072972937746184660260000017017056521571304606_);stroke-width:7;stroke-linejoin:round;stroke-miterlimit:10;}
	
		.st14{fill:none;stroke:url(#SVGID_00000088835257698652065750000015410523458760742590_);stroke-width:7;stroke-linejoin:round;stroke-miterlimit:10;}
	
		.st15{fill:none;stroke:url(#SVGID_00000011013397908744056100000016601762216223171209_);stroke-width:7;stroke-linejoin:round;stroke-miterlimit:10;}
	
		.st16{fill:none;stroke:url(#SVGID_00000121249738054812013910000004506549145731658163_);stroke-width:7;stroke-linecap:round;stroke-linejoin:round;stroke-miterlimit:10;}
	
		.st17{fill:none;stroke:url(#SVGID_00000017474401063007820890000010700812055049593000_);stroke-width:7;stroke-linecap:round;stroke-linejoin:round;stroke-miterlimit:10;}
	
		.st18{fill:none;stroke:url(#SVGID_00000107586265031944932470000002607092438457363840_);stroke-width:7;stroke-linecap:round;stroke-linejoin:round;stroke-miterlimit:10;}
	
		.st19{fill:none;stroke:url(#SVGID_00000124863988964689683790000001321462253587049883_);stroke-width:7;stroke-linecap:round;stroke-linejoin:round;stroke-miterlimit:10;}
	
		.st20{fill:none;stroke:url(#SVGID_00000018220359894366730260000001133213174713676208_);stroke-width:7;stroke-linecap:round;stroke-linejoin:round;stroke-miterlimit:10;}
	
		.st21{fill:none;stroke:url(#SVGID_00000111163433720637298810000002354257089573249438_);stroke-width:7;stroke-linecap:round;stroke-linejoin:round;stroke-miterlimit:10;}
	
		.st22{fill:none;stroke:url(#SVGID_00000165215445371595753800000003227834640951042232_);stroke-width:7;stroke-linecap:round;stroke-linejoin:round;stroke-miterlimit:10;}
	
		.st23{fill:none;stroke:url(#SVGID_00000097471489711785626230000001359920296513961381_);stroke-width:7;stroke-linecap:round;stroke-linejoin:round;stroke-miterlimit:10;}
	
		.st24{fill:none;stroke:url(#SVGID_00000091725638009864362940000008003155685822674575_);stroke-width:7;stroke-linecap:round;stroke-linejoin:round;stroke-miterlimit:10;}
	
		.st25{fill:none;stroke:url(#SVGID_00000024698303513166726090000012662867106032043692_);stroke-width:7;stroke-linecap:round;stroke-linejoin:round;stroke-miterlimit:10;}
	
		.st26{fill:none;stroke:url(#SVGID_00000112595034573412163760000008745739221284502196_);stroke-width:7;stroke-linecap:round;stroke-linejoin:round;stroke-miterlimit:10;}
	
		.st27{fill:none;stroke:url(#SVGID_00000057827330832762275110000007087002154483478705_);stroke-width:7;stroke-linecap:round;stroke-linejoin:round;stroke-miterlimit:10;}
	
		.st28{fill:none;stroke:url(#SVGID_00000088134287429735917270000011786049598326602930_);stroke-width:7;stroke-linecap:round;stroke-linejoin:round;stroke-miterlimit:10;}
	
		.st29{fill:none;stroke:url(#SVGID_00000102539601275406612630000015436032023511483315_);stroke-width:7;stroke-linecap:round;stroke-linejoin:round;stroke-miterlimit:10;}
	
		.st30{fill:none;stroke:url(#SVGID_00000054983148406610785390000001234174191806708653_);stroke-width:7;stroke-linecap:round;stroke-linejoin:round;stroke-miterlimit:10;}
	
		.st31{fill:none;stroke:url(#SVGID_00000047751656490990454230000011260665297847696059_);stroke-width:7;stroke-linecap:round;stroke-linejoin:round;stroke-miterlimit:10;}
	.st32{fill:url(#SVGID_00000005229681182981248790000000983070937253441467_);}
	.st33{fill:url(#SVGID_00000057120469697110205510000002160443158213015738_);}
	.st34{fill:url(#SVGID_00000069384021943961419070000016064731485258324633_);}
	.st35{fill:url(#SVGID_00000061434648818338443680000005461469880265144756_);}
	.st36{fill:url(#SVGID_00000114772382073790511420000005035437848467941532_);}
	.st37{fill:url(#SVGID_00000021105388437097045140000005533870243802876079_);}
	.st38{fill:url(#SVGID_00000101792728457145286330000000594666243078419879_);}
	.st39{fill:url(#SVGID_00000026153889434140585280000005570820755359737526_);}
	.st40{fill:url(#SVGID_00000114075797246677902020000010847727394783706258_);}
	.st41{fill:url(#SVGID_00000052070085992577357520000015776586098453137048_);}
	.st42{fill:url(#SVGID_00000067201235216617557340000002101945951570468786_);}
	.st43{fill:url(#SVGID_00000130607854785771070450000012414097247254268821_);}
	.st44{fill:url(#SVGID_00000050662249912618740860000017655266876263281828_);}
	.st45{fill:url(#SVGID_00000109731520903437038520000003176659353348783533_);}
	.st46{fill:#B3B3B3;}
	.st47{clip-path:url(#SVGID_00000046309059944973576300000014351423855949687977_);}
	.st48{clip-path:url(#SVGID_00000158735710668835090760000008880321904593186211_);fill:#1E589E;}
	.st49{clip-path:url(#SVGID_00000158735710668835090760000008880321904593186211_);fill:#D21E47;}
	.st50{fill:url(#SVGID_00000002359693859085473950000009885743117540878783_);}
	.st51{fill:url(#SVGID_00000123406873845395585070000001240260231455827368_);}
	.st52{fill:url(#SVGID_00000102518614425260205910000013433112965833065126_);}
	.st53{fill:url(#SVGID_00000109008941725531596040000002842442836537367736_);}
	.st54{fill:url(#SVGID_00000021804481383884805900000011651878204068879761_);}
	.st55{fill:url(#SVGID_00000129926182687672989230000010503776117423671977_);}
	.st56{fill:url(#SVGID_00000067196683919069665180000004223718644770820268_);}
	.st57{fill:url(#SVGID_00000137848247977994598700000007305862319949744525_);}
	.st58{fill:url(#SVGID_00000031913060705817927470000011990236006914079375_);}
	.st59{fill:url(#SVGID_00000135674797344611354490000017335229181390960045_);}
	.st60{fill:url(#SVGID_00000016784944850031481150000005895230386255896509_);}
	.st61{fill:url(#SVGID_00000134242721648718066150000008674533171721411760_);}
	.st62{fill:url(#SVGID_00000016048232854840001550000003381520854448454834_);}
	.st63{fill:url(#SVGID_00000091006830830400980760000004003014327009661353_);}
	.st64{clip-path:url(#SVGID_00000007394423992613995770000010706324644984214711_);}
	.st65{clip-path:url(#SVGID_00000156582889556633939400000013019369032075046784_);fill:#1E589E;}
	.st66{clip-path:url(#SVGID_00000156582889556633939400000013019369032075046784_);fill:#D21E47;}
	.st67{fill:url(#SVGID_00000034065088892358494890000017129798930248635554_);}
	.st68{fill:url(#SVGID_00000174580367659561484000000013405941244383667328_);}
	.st69{fill:url(#SVGID_00000107577374872892875690000003690232242002150577_);}
	.st70{fill:url(#SVGID_00000116233129521749167440000017075142545996850608_);}
	.st71{fill:url(#SVGID_00000067937925850475901740000008668526184737531293_);}
	.st72{fill:url(#SVGID_00000069398522544277566010000009928881818029366971_);}
	.st73{fill:url(#SVGID_00000027600780655310672280000001968905901644729785_);}
	.st74{fill:url(#SVGID_00000062913782657805197080000004900613783705030824_);}
	.st75{fill:url(#SVGID_00000118376235074125356320000012685126577368185220_);}
	.st76{fill:url(#SVGID_00000071549473058958106870000000703254837806192022_);}
	.st77{fill:url(#SVGID_00000052075435330533497440000016193776069134122120_);}
	.st78{fill:url(#SVGID_00000023271655395082129590000006730184005877321604_);}
	.st79{fill:url(#SVGID_00000137126708689042186840000010813991749856131983_);}
	.st80{fill:url(#SVGID_00000134220425446156182200000009077659469414114220_);}
	.st81{fill:#333333;}
	.st82{fill:#4D4D4D;}
	.st83{font-family:'Formata-Light';}
	.st84{font-size:34.3433px;}
	.st85{clip-path:url(#SVGID_00000070105313608019270790000008112814668968020373_);}
	.st86{clip-path:url(#SVGID_00000148645306632656688610000002025157744191063943_);fill:#1E589E;}
	.st87{clip-path:url(#SVGID_00000148645306632656688610000002025157744191063943_);fill:#D21E47;}
	.st88{fill:url(#SVGID_00000008838037417800635810000003774116685606444210_);}
	.st89{fill:url(#SVGID_00000075157541522558767740000002735092988553437334_);}
	.st90{fill:url(#SVGID_00000067238149184540492190000012413097995996966028_);}
	.st91{fill:url(#SVGID_00000049195116551226960010000006593879888976102302_);}
	.st92{fill:url(#SVGID_00000005241920804678313660000003346509558694774676_);}
	.st93{fill:url(#SVGID_00000016775816351595285170000008580342327669445549_);}
	.st94{fill:url(#SVGID_00000183229993635941397340000013422909806666247336_);}
	.st95{fill:url(#SVGID_00000046326294039346836510000010866672998696877704_);}
	.st96{fill:url(#SVGID_00000122701700207713144150000003008510094666846897_);}
	.st97{fill:url(#SVGID_00000036230994392080270910000012920709488455551642_);}
	.st98{fill:url(#SVGID_00000063596230670756507970000008459751389943007371_);}
	.st99{fill:url(#SVGID_00000042014383664753990230000002645740714206159020_);}
	.st100{fill:url(#SVGID_00000025413985872218118950000013333524881511419810_);}
	.st101{fill:url(#SVGID_00000174561573806825449530000005538974420952000923_);}
	.st102{fill:#666666;}
	.st103{clip-path:url(#SVGID_00000063618154582586970100000010333892951518365572_);}
	.st104{clip-path:url(#SVGID_00000029044956721623995020000014461966580591952796_);fill:#1E589E;}
	.st105{clip-path:url(#SVGID_00000029044956721623995020000014461966580591952796_);fill:#D21E47;}
	.st106{fill:url(#SVGID_00000130622491694145063300000016074348846331962045_);}
	.st107{fill:url(#SVGID_00000048491201941556399290000007928232439771345287_);}
	.st108{fill:url(#SVGID_00000103975096322057778290000003083678694660561024_);}
	.st109{fill:url(#SVGID_00000096032948707078181350000005906460359860587945_);}
	.st110{fill:url(#SVGID_00000092428388996848229190000004178828861459459228_);}
	.st111{fill:url(#SVGID_00000041281881979216044490000003456083612725404861_);}
	.st112{fill:url(#SVGID_00000015330365121177650280000002194913777903501470_);}
	.st113{fill:url(#SVGID_00000152962004871774890850000017328197007909513657_);}
	.st114{fill:url(#SVGID_00000163757517674339596230000008147218797250765187_);}
</style>
<g>
	<path class="st2" d="M555.74,103.85c4.92-5.07,7.39-9.65,7.39-13.74c0-3.96-1.59-5.94-4.77-5.94c-1.8,0-3.11,0.69-3.92,2.07
		c-0.81,1.38-1.25,3.66-1.31,6.85h-17.2c0.36-7.99,2.76-13.95,7.21-17.88c4.44-3.93,10-5.9,16.66-5.9c7.27,0,12.64,1.8,16.12,5.4
		c3.48,3.6,5.22,8.17,5.22,13.69c0,5.94-2.12,11.65-6.35,17.11c-4.23,5.46-9.44,10.12-15.63,13.96h22.88v14.32h-46.03v-13.24
		C544.24,114.49,550.81,108.93,555.74,103.85z"/>
	<path class="st2" d="M587.53,102c0-9.91,2.12-17.76,6.35-23.55c4.23-5.79,10.82-8.69,19.77-8.69c8.95,0,15.55,2.91,19.82,8.74
		c4.26,5.83,6.39,13.66,6.39,23.51c0,9.91-2.13,17.77-6.39,23.6c-4.26,5.82-10.87,8.74-19.82,8.74c-8.95,0-15.54-2.91-19.77-8.74
		C589.65,119.78,587.53,111.91,587.53,102z M622.39,102c0-4.92-0.58-8.74-1.76-11.44s-3.5-4.05-6.98-4.05
		c-3.48,0-5.81,1.35-6.98,4.05s-1.76,6.52-1.76,11.44c0,4.98,0.59,8.83,1.76,11.53c1.17,2.7,3.5,4.05,6.98,4.05
		c3.48,0,5.81-1.35,6.98-4.05C621.81,110.83,622.39,106.99,622.39,102z"/>
	<path class="st2" d="M665.53,103.85c4.92-5.07,7.39-9.65,7.39-13.74c0-3.96-1.59-5.94-4.77-5.94c-1.8,0-3.11,0.69-3.92,2.07
		c-0.81,1.38-1.25,3.66-1.31,6.85h-17.2c0.36-7.99,2.76-13.95,7.21-17.88c4.44-3.93,10-5.9,16.66-5.9c7.27,0,12.64,1.8,16.12,5.4
		c3.48,3.6,5.22,8.17,5.22,13.69c0,5.94-2.12,11.65-6.35,17.11c-4.23,5.46-9.44,10.12-15.63,13.96h22.88v14.32h-46.03v-13.24
		C654.03,114.49,660.61,108.93,665.53,103.85z"/>
	<path class="st2" d="M733.04,70.07c3.27,1.59,5.75,3.75,7.43,6.48c1.68,2.73,2.52,5.81,2.52,9.23c0,4.14-1.02,7.46-3.06,9.95
		c-2.04,2.49-4.47,4.07-7.29,4.73v0.36c7.68,2.76,11.53,7.87,11.53,15.31c0,3.78-0.87,7.12-2.61,10c-1.74,2.88-4.25,5.12-7.52,6.71
		c-3.27,1.59-7.19,2.39-11.75,2.39c-7.57,0-13.53-1.83-17.88-5.49c-4.35-3.66-6.65-9.34-6.89-17.02h17.29
		c-0.12,5.22,2.13,7.84,6.75,7.84c1.62,0,2.93-0.52,3.92-1.58c0.99-1.05,1.49-2.42,1.49-4.1c0-2.16-0.74-3.78-2.21-4.86
		c-1.47-1.08-3.83-1.62-7.07-1.62h-3.15V94.08h3.06c2.34,0,4.29-0.41,5.85-1.22c1.56-0.81,2.34-2.45,2.34-4.91
		c0-1.86-0.45-3.26-1.35-4.19c-0.9-0.93-2.1-1.4-3.6-1.4c-1.68,0-2.96,0.65-3.83,1.94c-0.87,1.29-1.37,2.93-1.49,4.91h-17.2
		c0.24-6.96,2.33-12.29,6.26-15.99c3.93-3.69,9.47-5.54,16.62-5.54C725.82,67.69,729.77,68.48,733.04,70.07z"/>
</g>
<g>
	<g>
		<linearGradient id="SVGID_1_" gradientUnits="userSpaceOnUse" x1="678.2535" y1="94.2421" x2="237.2505" y2="94.2421">
			<stop  offset="0" style="stop-color:#F27121"/>
			<stop  offset="0.5043" style="stop-color:#E94057"/>
			<stop  offset="1" style="stop-color:#8A2387"/>
		</linearGradient>
		<path style="fill:url(#SVGID_1_);" d="M391.06,133.55c-7.65,0-15.12,0-22.69,0c0-0.45,0-0.85,0-1.24c0-25.36,0-50.71,0-76.07
			c0-1.36,0-1.36,1.35-1.36c5.37,0,10.75,0.02,16.12-0.02c0.83-0.01,1.33,0.24,1.82,0.91c9.17,12.59,18.37,25.16,27.56,37.74
			c0.25,0.34,0.5,0.68,0.94,1.26c0-13.46,0-26.6,0-39.82c7.57,0,15.04,0,22.6,0c0,26.17,0,52.35,0,78.65c-0.3,0-0.63,0-0.95,0
			c-5.54,0-11.08-0.01-16.62,0.02c-0.72,0-1.14-0.24-1.56-0.81c-9.23-12.67-18.49-25.32-27.74-37.98c-0.21-0.28-0.42-0.56-0.82-0.77
			C391.06,107.2,391.06,120.34,391.06,133.55z"/>
		
			<linearGradient id="SVGID_00000165933539688355951330000001412091682443018392_" gradientUnits="userSpaceOnUse" x1="678.2535" y1="94.2434" x2="237.2505" y2="94.2434">
			<stop  offset="0" style="stop-color:#F27121"/>
			<stop  offset="0.5043" style="stop-color:#E94057"/>
			<stop  offset="1" style="stop-color:#8A2387"/>
		</linearGradient>
		<path style="fill:url(#SVGID_00000165933539688355951330000001412091682443018392_);" d="M476.7,94.07c0,13.14,0,26.28,0,39.48
			c-7.57,0-15.04,0-22.6,0c0-26.17,0-52.34,0-78.67c0.4,0,0.79,0,1.18,0c5.44,0,10.88,0.02,16.32-0.02c0.75,0,1.21,0.22,1.66,0.83
			c9.19,12.62,18.41,25.22,27.62,37.82c0.25,0.34,0.5,0.68,0.94,0.94c0-13.14,0-26.29,0-39.5c7.57,0,15.04,0,22.59,0
			c0,26.18,0,52.35,0,78.66c-0.31,0-0.64,0-0.96,0c-5.54,0-11.08-0.01-16.62,0.02c-0.73,0-1.14-0.25-1.56-0.82
			c-9.23-12.67-18.49-25.32-27.74-37.98c-0.21-0.28-0.42-0.56-0.63-0.84C476.83,94.01,476.76,94.04,476.7,94.07z"/>
		
			<linearGradient id="SVGID_00000013165976582458233890000000030532166144328863_" gradientUnits="userSpaceOnUse" x1="678.2535" y1="94.1946" x2="237.2505" y2="94.1946">
			<stop  offset="0" style="stop-color:#F27121"/>
			<stop  offset="0.5043" style="stop-color:#E94057"/>
			<stop  offset="1" style="stop-color:#8A2387"/>
		</linearGradient>
		<path style="fill:url(#SVGID_00000013165976582458233890000000030532166144328863_);" d="M360.78,74.41
			c-5.79,4.29-11.5,8.52-17.14,12.69c-1.08-1.64-2-3.32-3.18-4.8c-6.02-7.52-16.81-9.35-24.73-4.18c-4.11,2.69-6.33,6.67-7.22,11.41
			c-1.04,5.49-0.43,10.78,2.43,15.66c5.14,8.77,15.54,10.02,23.01,5.79c3.6-2.04,6.24-5.05,8.43-8.49c0.23-0.37,0.46-0.74,0.76-1.23
			c5.93,4.28,11.81,8.53,17.73,12.8c-1.71,3.32-3.85,6.23-6.41,8.82c-6.48,6.55-14.32,10.57-23.44,11.63
			c-13.95,1.61-26.23-2.1-35.98-12.6c-5.72-6.16-8.93-13.57-10.03-21.88c-1.1-8.31-0.1-16.36,3.51-23.97
			c5.16-10.88,13.75-17.77,25.33-20.85c9.24-2.46,18.47-2.42,27.51,1C350.24,59.6,356.59,65.77,360.78,74.41z"/>
		
			<linearGradient id="SVGID_00000099632923615810105640000010699932078178557605_" gradientUnits="userSpaceOnUse" x1="678.2535" y1="94.951" x2="237.2505" y2="94.951">
			<stop  offset="0" style="stop-color:#F27121"/>
			<stop  offset="0.5043" style="stop-color:#E94057"/>
			<stop  offset="1" style="stop-color:#8A2387"/>
		</linearGradient>
		<path style="fill:url(#SVGID_00000099632923615810105640000010699932078178557605_);" d="M221.7,116.51
			c5.89-3.44,11.7-6.83,17.54-10.24c0.72,1.49,1.34,2.97,2.13,4.34c1.03,1.8,2.46,3.17,4.65,3.51c3.47,0.55,6.28-1.65,6.54-5.16
			c0.05-0.64,0.05-1.28,0.05-1.91c0-16.93,0-33.85,0-50.78c0-0.4,0-0.8,0-1.3c7.65,0,15.24,0,22.93,0c0,0.35,0,0.68,0,1.01
			c0,17.46,0.01,34.93,0,52.39c-0.01,7.33-2.27,13.8-7.62,18.98c-4.16,4.03-9.23,6.25-14.92,7.13c-5.75,0.89-11.39,0.54-16.79-1.76
			C228.9,129.6,224.22,124.1,221.7,116.51z"/>
		
			<linearGradient id="SVGID_00000124129764026472427530000011631567974598515886_" gradientUnits="userSpaceOnUse" x1="678.2535" y1="94.241" x2="237.2505" y2="94.241">
			<stop  offset="0" style="stop-color:#F27121"/>
			<stop  offset="0.5043" style="stop-color:#E94057"/>
			<stop  offset="1" style="stop-color:#8A2387"/>
		</linearGradient>
		<path style="fill:url(#SVGID_00000124129764026472427530000011631567974598515886_);" d="M215.68,54.94c0,26.24,0,52.39,0,78.6
			c-7.6,0-15.16,0-22.79,0c0-26.2,0-52.37,0-78.6C200.49,54.94,208.03,54.94,215.68,54.94z"/>
	</g>
</g>
<linearGradient id="SVGID_00000145779105618202075460000016229420155950129847_" gradientUnits="userSpaceOnUse" x1="32.5055" y1="85.8796" x2="102.2737" y2="85.8796">
	<stop  offset="0" style="stop-color:#F27121"/>
	<stop  offset="0.5043" style="stop-color:#E94057"/>
	<stop  offset="1" style="stop-color:#8A2387"/>
</linearGradient>
<path style="fill:url(#SVGID_00000145779105618202075460000016229420155950129847_);" d="M102.27,103.04l0-0.15l0-0.03l-4.72-38.89
	l4.69-26.28c0.04-0.25,0.04-0.49-0.02-0.73l-4.55-20.02l-0.02-0.11c-0.02-0.1-0.06-0.2-0.14-0.38c-0.04-0.07-0.08-0.15-0.17-0.28
	c-0.07-0.09-0.14-0.17-0.14-0.16l-0.12-0.13c-0.07-0.06-0.14-0.12-0.28-0.21c-0.09-0.05-0.18-0.1-0.37-0.17l-12.5-2.91
	c-0.85-0.19-1.73,0.23-2.09,1.02L67.19,45.18l-0.05,0.12l0.58,0.22c0,0,0,0,0,0l0,0l-0.64-0.04c-0.01,0.04-0.02,0.09-0.03,0.14
	l-0.02,0.15c0,0.06-0.01,0.12-0.01,0.28c0,0.09,0.02,0.19,0.04,0.28l6.27,30.56l-19.34-5.44c-0.06-0.02-0.12-0.03-0.26-0.05
	c-0.11-0.02-0.22-0.02-0.41-0.01c-0.08,0.01-0.16,0.02-0.34,0.06c-0.11,0.03-0.21,0.07-0.31,0.12c-0.1,0.05-0.19,0.11-0.36,0.23
	c-0.06,0.05-0.12,0.11-0.17,0.16l0.41,0.47c0,0,0,0,0,0l-0.5-0.37L32.88,95.9c-0.05,0.06-0.09,0.13-0.14,0.23l-0.15,0.35l0.59,0.21
	l-0.62-0.08c-0.05,0.24-0.06,0.48-0.02,0.71l5.92,26.83c0.02,0.09,0.05,0.17,0.11,0.33l11.25,21.79l0.09,0.14
	c0.03,0.04,0.05,0.08,0.11,0.15c0.03,0.03,0.05,0.06,0.07,0.08l0.1,0.1c0.04,0.04,0.08,0.07,0.11,0.09l0.11,0.08
	c0.04,0.03,0.09,0.06,0.22,0.13l19.13,9.48c0.17,0.08,0.35,0.14,0.53,0.17l16.01,2.5c0.09,0.01,0.18,0.02,0.16,0.01l0.15,0.01
	l0.08,0c0.08,0,0.15-0.02,0.34-0.06c0.14-0.04,0.27-0.09,0.4-0.15l9.48-5.01c0.56-0.29,0.92-0.84,0.98-1.47l4.38-49.31l0.01-0.08
	l0-0.04L102.27,103.04z M75.36,36.35l9.21-19.82l7.75,1.8L75.36,36.35z M94.25,67.4l3.73,30.71l-19.4-18.48L94.25,67.4z M71.7,45.64
	l23.13-24.58l3.71,16.36l-4.18,23.4L71.7,45.64z M76.96,76.2L71.58,50l20.96,14.04L76.96,76.2z M97.71,112.66l-3.42,38.53l-6.06,3.2
	l-1.23-20.07L97.71,112.66z M83.44,136.46l1.14,18.72l-13.45-2.1l-14.89-7.38L83.44,136.46z M37.32,96.27l15.79-19.63l8.43,17.16
	l-5.03,10.72L37.32,96.27z M68.2,111.24l-16.71,30.22l-8.96-17.35L58,108.96L68.2,111.24z M64.01,90.45l-7.04-14.32l15.51,4.36
	L64.01,90.45z M60.07,105.63l5.08-10.83l10.73-12.63l20.79,19.81L71,108.08L60.07,105.63z M97.03,105.71l-13.21,26.73l-28.46,9.66
	l16.87-30.51L97.03,105.71z M54.16,107.54l-12.82,12.55l-4.41-19.96L54.16,107.54z M52.76,72.24L52.76,72.24L52.76,72.24
	L52.76,72.24z"/>
<g>
	
		<linearGradient id="SVGID_00000134245981961165059850000007807009554967312574_" gradientUnits="userSpaceOnUse" x1="11.4616" y1="81.2953" x2="33.8158" y2="81.2953">
		<stop  offset="0" style="stop-color:#F27121"/>
		<stop  offset="0.5043" style="stop-color:#E94057"/>
		<stop  offset="1" style="stop-color:#8A2387"/>
	</linearGradient>
	<path style="fill:url(#SVGID_00000134245981961165059850000007807009554967312574_);" d="M29.64,76.72
		c-0.32-0.32-0.74-0.51-1.18-0.54l-15.02-1.01c-0.83-0.06-1.56,0.42-1.85,1.19c-0.29,0.77-0.05,1.62,0.6,2.12l11.09,8.57
		c0.32,0.25,0.72,0.38,1.13,0.38c0.29,0,0.59-0.07,0.85-0.21l7.57-3.92c0.52-0.27,0.89-0.78,0.98-1.36c0.09-0.58-0.1-1.18-0.52-1.59
		L29.64,76.72z M28.88,81.18L24.6,83.4l-5.35-4.13l8.27,0.56L28.88,81.18z"/>
	
		<linearGradient id="SVGID_00000144329614406407590430000014161143156035095183_" gradientUnits="userSpaceOnUse" x1="23.1092" y1="65.8981" x2="41.3713" y2="65.8981">
		<stop  offset="0" style="stop-color:#F27121"/>
		<stop  offset="0.5043" style="stop-color:#E94057"/>
		<stop  offset="1" style="stop-color:#8A2387"/>
	</linearGradient>
	<path style="fill:url(#SVGID_00000144329614406407590430000014161143156035095183_);" d="M23.11,53.77l13.44,24.27l4.82-24.27
		H23.11z M29.38,57.46h7.49l-1.98,9.95L29.38,57.46z"/>
	
		<linearGradient id="SVGID_00000168822910513117552790000002759732564888357819_" gradientUnits="userSpaceOnUse" x1="3.715" y1="55.8523" x2="17.4231" y2="55.8523">
		<stop  offset="0" style="stop-color:#F27121"/>
		<stop  offset="0.5043" style="stop-color:#E94057"/>
		<stop  offset="1" style="stop-color:#8A2387"/>
	</linearGradient>
	<path style="fill:url(#SVGID_00000168822910513117552790000002759732564888357819_);" d="M17.42,57.31
		c0.03-0.65-0.29-1.27-0.83-1.63L6.57,49.12c-0.64-0.42-1.48-0.4-2.1,0.05c-0.62,0.45-0.89,1.25-0.69,1.98l2.86,10.37
		c0.15,0.54,0.53,0.98,1.05,1.21c0.23,0.1,0.48,0.15,0.73,0.15c0.3,0,0.6-0.07,0.87-0.22l7.15-3.82
		C17.02,58.55,17.39,57.95,17.42,57.31z M11.96,57.06l-2.36,1.26l-0.95-3.43L11.96,57.06z"/>
</g>
<linearGradient id="SVGID_00000023242237433910286600000008481259846307194501_" gradientUnits="userSpaceOnUse" x1="15.6931" y1="37.4629" x2="31.7881" y2="37.4629">
	<stop  offset="0" style="stop-color:#F27121"/>
	<stop  offset="0.5043" style="stop-color:#E94057"/>
	<stop  offset="1" style="stop-color:#8A2387"/>
</linearGradient>
<path style="fill:url(#SVGID_00000023242237433910286600000008481259846307194501_);" d="M31.75,36.56
	c-0.14-0.63-0.6-1.15-1.21-1.36l-12.4-4.23c-0.76-0.26-1.6,0-2.08,0.65c-0.48,0.65-0.48,1.53-0.01,2.18l6.86,9.48
	c0.31,0.43,0.79,0.71,1.32,0.76l0.17,0.01c0.47,0,0.93-0.18,1.27-0.51l5.54-5.25C31.68,37.86,31.88,37.19,31.75,36.56z M26.45,37.72
	l-1.79,1.69l-2.21-3.06L26.45,37.72z"/>
<linearGradient id="SVGID_00000177451671397782854680000002548018746238561673_" gradientUnits="userSpaceOnUse" x1="38.5256" y1="54.6592" x2="67.373" y2="54.6592">
	<stop  offset="0" style="stop-color:#F27121"/>
	<stop  offset="0.5043" style="stop-color:#E94057"/>
	<stop  offset="1" style="stop-color:#8A2387"/>
</linearGradient>
<path style="fill:url(#SVGID_00000177451671397782854680000002548018746238561673_);" d="M67.27,67.04l-8.58-24.26
	c-0.24-0.67-0.85-1.15-1.55-1.22l-16.57-1.73c-0.72-0.08-1.41,0.27-1.78,0.89c-0.37,0.61-0.35,1.39,0.06,1.99l8.46,12.46
	c0.1,0.15,0.22,0.29,0.37,0.4l16.69,13.53c0.33,0.27,0.74,0.41,1.16,0.41c0.38,0,0.75-0.12,1.07-0.34
	C67.26,68.69,67.54,67.81,67.27,67.04z M61.6,62.09l-11.39-9.23l-6.08-8.94l11.45,1.19L61.6,62.09z"/>
<linearGradient id="SVGID_00000174577792157690298180000013135020550068489133_" gradientUnits="userSpaceOnUse" x1="39.4772" y1="19.6396" x2="73.3922" y2="19.6396">
	<stop  offset="0" style="stop-color:#F27121"/>
	<stop  offset="0.5043" style="stop-color:#E94057"/>
	<stop  offset="1" style="stop-color:#8A2387"/>
</linearGradient>
<path style="fill:url(#SVGID_00000174577792157690298180000013135020550068489133_);" d="M72.76,4.63c-0.62-0.54-1.51-0.61-2.2-0.17
	l-14.18,8.94c-0.06,0.04-0.11,0.07-0.17,0.12l-16.03,12.7c-0.54,0.43-0.8,1.11-0.67,1.78c0.12,0.67,0.61,1.22,1.26,1.43l17.7,5.6
	c0.18,0.06,0.37,0.09,0.56,0.09c0.72,0,1.38-0.42,1.68-1.08L73.23,6.79C73.56,6.06,73.37,5.17,72.76,4.63z M67.27,10.9l-9.24,20.11
	L45.2,26.95l13.2-10.46L67.27,10.9z"/>
<g>
	
		<linearGradient id="SVGID_00000013892736934846091340000004879936887247764128_" gradientUnits="userSpaceOnUse" x1="112.4359" y1="87.7475" x2="177.8874" y2="87.7475">
		<stop  offset="0" style="stop-color:#F27121"/>
		<stop  offset="0.5043" style="stop-color:#E94057"/>
		<stop  offset="1" style="stop-color:#8A2387"/>
	</linearGradient>
	<path style="fill:url(#SVGID_00000013892736934846091340000004879936887247764128_);" d="M177.85,92.07
		c-0.44-10.21-5.15-18.84-7.15-22.07c-0.64-1.03-1.3-2-1.86-2.72c-0.06-0.08-0.13-0.17-0.2-0.25c3.15-13.26-2.66-18.39-4.9-20.2
		c-0.95-8.66-4.51-12.96-7.35-15.04c-1.78-1.31-3.5-1.94-4.75-2.24c-1.05-9.07-12.71-12.27-16.8-13.11
		c-0.47-0.89-1.2-1.61-2.17-2.15c-5.26-2.93-16.72,0.49-18.96,1.21c-0.77,0.25-1.28,0.95-1.28,1.76v134.92
		c0,0.15,0.02,0.29,0.05,0.44c1.41,5.75,5.25,9.09,11.09,9.68c0.57,0.06,1.16,0.09,1.77,0.09c7.3,0,15.4-4.1,18.44-7.91
		c4.24,1.27,11.36,0.08,16.76-4.7c4.24-3.75,10.33-12.54,3.87-29.45C173.81,112.67,178.33,103.17,177.85,92.07z M161.08,118.25
		L161.08,118.25c-0.66,0.51-0.9,1.4-0.58,2.17c4.74,11.57,3.89,21.01-2.39,26.57c-4.85,4.29-11.61,4.98-14.12,3.57
		c-0.31-0.18-7.75-4.36-16.52-0.87c-0.46,0.18-0.82,0.53-1.01,0.99c-0.2,0.45-0.2,0.96-0.02,1.41c0.38,0.95,1.46,1.41,2.4,1.03
		c4.66-1.85,8.87-1.05,11.37-0.19c-2.98,2.9-10.15,6.28-16.25,5.67c-4.13-0.41-6.76-2.66-7.82-6.67V136.6
		c8.78,4.62,16.42,6.86,23.31,6.86c3.4,0,6.65-0.54,9.92-1.64c0.8,0.83,2.26,1.91,4.86,2.87c0.94,0.35,2.03-0.16,2.37-1.09
		c0.17-0.46,0.15-0.97-0.05-1.41c-0.21-0.45-0.57-0.79-1.04-0.96c-0.86-0.32-1.59-0.66-2.2-1.01c2.12-1.01,4.28-2.26,6.57-3.81
		c0.41-0.28,0.69-0.7,0.78-1.18c0.09-0.48-0.01-0.98-0.29-1.38c-0.28-0.41-0.7-0.68-1.18-0.78c-0.48-0.09-0.97,0.01-1.39,0.28
		c-11.09,7.51-21.94,9.97-41.69-0.94v-13.03c3.11-1.39,12.2-4.97,20.83-3.77c0.5,0.07,0.98-0.06,1.37-0.36
		c0.39-0.3,0.65-0.73,0.72-1.22c0.14-1.01-0.57-1.94-1.58-2.08c-1.06-0.15-2.18-0.24-3.32-0.27c0.67-1.49,1.42-2.57,2.02-2.9
		c0.43-0.24,0.75-0.63,0.89-1.1c0.14-0.47,0.09-0.97-0.15-1.41c-0.24-0.43-0.63-0.75-1.1-0.89c-0.48-0.14-0.97-0.08-1.41,0.15
		c-2.17,1.19-3.58,4.29-4.29,6.27c-5.79,0.52-10.96,2.3-13.99,3.53V87.96c12.19-2.71,20.02-9.38,23.29-19.83
		c6.6,1.37,14.96,4.41,18.46,11.17c2.79,5.37,2.15,12.45-1.9,21.04c-0.43,0.92-0.04,2.02,0.88,2.46c0.89,0.42,2.04,0.01,2.46-0.88
		c0.45-0.96,0.87-1.92,1.25-2.87c0.67,0.63,1.33,1.52,1.51,2.64c0.16,1,1.13,1.69,2.12,1.53c0.49-0.08,0.92-0.34,1.2-0.74
		c0.29-0.4,0.4-0.89,0.32-1.38c-0.47-2.91-2.47-4.77-3.85-5.74c2.07-6.86,1.83-12.83-0.72-17.76c-4.14-7.99-13.48-11.5-20.82-13.05
		c0.41-2.05,0.68-4.24,0.79-6.52c0.05-1.02-0.74-1.89-1.76-1.93c-0.99-0.04-1.88,0.74-1.93,1.76c-0.13,2.76-0.5,5.35-1.13,7.8
		c-2.53,9.8-9.13,15.87-20.17,18.52V31.49c2.6-2.11,7.5-5.46,10.45-5.55c0.49-0.01,0.95-0.22,1.29-0.58
		c0.34-0.36,0.52-0.83,0.5-1.32c-0.03-1.01-0.84-1.8-1.9-1.8h0c-3.26,0.09-7.27,2.41-10.35,4.61v-8.23
		c4.33-1.23,11.87-2.72,14.75-1.12c0.48,0.26,0.73,0.56,0.83,1c0.18,0.72,0.77,1.26,1.51,1.38c0.13,0.02,12.44,2.05,14.51,8.96
		c-2.24-0.36-6.09-0.86-8.86-0.56c-0.52-2.41-2-4.64-4.3-6.48c-0.38-0.31-0.87-0.45-1.36-0.4c-0.49,0.05-0.93,0.3-1.24,0.68
		c-0.64,0.8-0.51,1.96,0.29,2.6c2.01,1.61,3.09,3.52,3.12,5.5c0.03,1.71-0.72,3.47-2.12,5.02c-1.93-1.57-5.62-3.39-11.02-1.16
		c-0.46,0.19-0.81,0.54-1,1c-0.19,0.46-0.19,0.96,0,1.41c0.19,0.46,0.54,0.81,1,1c0.45,0.19,0.96,0.19,1.41,0
		c3.57-1.47,6.8-0.68,8.64,2.11c1.86,2.81,2.02,7.64-2.01,11.58c-9.13,8.93-5.46,18.66-5.3,19.07c0.36,0.92,1.47,1.41,2.39,1.05
		c0.95-0.37,1.42-1.44,1.06-2.39c-0.12-0.32-2.9-7.9,4.44-15.09c5.3-5.19,5.18-11.69,2.81-15.77c1.71-1.78,2.84-3.9,3.24-6.06
		c1.65-0.22,5.73-0.08,10.57,0.94l0.3,0.04c0.35,0.02,8.57,0.55,10.22,13.74c-0.04,0.09-0.07,0.18-0.09,0.27
		c-0.31,1.27,0.61,2,1.28,2.54c1.84,1.47,6.73,5.38,3.71,17.24c-0.23,0.47-0.25,1.01-0.06,1.53c0.16,0.43,0.47,0.79,0.88,1
		c2.03,2.47,8.88,13.28,8.44,25.46C173.83,103.92,169.43,111.83,161.08,118.25z"/>
	
		<linearGradient id="SVGID_00000148638911263722562570000009792794060408981167_" gradientUnits="userSpaceOnUse" x1="127.3329" y1="102.3683" x2="156.812" y2="102.3683">
		<stop  offset="0" style="stop-color:#F27121"/>
		<stop  offset="0.5043" style="stop-color:#E94057"/>
		<stop  offset="1" style="stop-color:#8A2387"/>
	</linearGradient>
	<path style="fill:url(#SVGID_00000148638911263722562570000009792794060408981167_);" d="M139.56,99.62
		c5.22-4.43,8.41-8.55,9.73-12.56c2.81,0.33,5.33-0.47,7.02-2.28c0.7-0.74,0.66-1.91-0.09-2.61c-0.36-0.34-0.86-0.52-1.32-0.5
		c-0.49,0.02-0.95,0.22-1.29,0.58l0,0c-1.04,1.11-2.55,1.24-3.64,1.16c0.14-3.08-0.83-5.75-1.82-7.98c-0.2-0.45-0.57-0.8-1.03-0.97
		c-0.46-0.18-0.96-0.16-1.41,0.04c-0.93,0.41-1.35,1.51-0.94,2.44c1.07,2.41,2.05,5.03,1.23,8.23c-1,3.92-4.43,8.18-10.48,12.99
		c-1.83-0.61-3.8-1.2-5.87-1.76c-0.98-0.27-2,0.32-2.26,1.3c-0.26,0.98,0.32,2,1.3,2.27c11.86,3.2,19.17,7.1,21.15,11.27
		c0.73,1.54,0.71,3.14-0.07,4.88c-3.8,8.47-6.1,11.16-18.91,10.53c-0.98-0.04-1.88,0.75-1.93,1.76c-0.05,1.02,0.74,1.89,1.76,1.94
		c1.1,0.05,2.14,0.08,3.12,0.08c11.71,0,15.3-3.77,19.34-12.79c1.23-2.75,1.24-5.43,0.04-7.97
		C151.41,105.88,146.82,102.51,139.56,99.62z"/>
</g>
<g>
	<path class="st81" d="M194.07,145.44h2.4v11.95h-2.4V145.44z"/>
	<path class="st81" d="M210.08,145.43v11.97h-2.4l-5.43-8.2v8.2h-2.4v-11.97h2.4l5.43,8.22v-8.22H210.08z"/>
	<path class="st81" d="M212.83,145.44h8.77v1.93h-3.18v10.02h-2.4v-10.02h-3.18V145.44z"/>
	<path class="st81" d="M231.31,147.38h-4.54v3h4.02v1.9h-4.02v3.17h4.54v1.95h-6.93v-11.97h6.93V147.38z"/>
	<path class="st81" d="M238.99,145.44c2.88,0,4.31,1.66,4.31,3.66c0,1.46-0.8,2.93-2.72,3.44l2.86,4.85h-2.77l-2.64-4.66h-1.13v4.66
		h-2.4v-11.95H238.99z M238.91,147.43h-2v3.51h2c1.34,0,1.93-0.7,1.93-1.78C240.84,148.1,240.24,147.43,238.91,147.43z"/>
	<path class="st81" d="M256.73,145.43v11.97h-2.4l-5.43-8.2v8.2h-2.4v-11.97h2.4l5.43,8.22v-8.22H256.73z"/>
	<path class="st81" d="M267.45,155.12h-4.76l-0.79,2.28h-2.52l4.3-11.97h2.79l4.3,11.97h-2.53L267.45,155.12z M265.07,148.2l-1.73,5
		h3.46L265.07,148.2z"/>
	<path class="st81" d="M272.77,145.44h8.77v1.93h-3.18v10.02h-2.4v-10.02h-3.18V145.44z"/>
	<path class="st81" d="M284.31,145.44h2.4v11.95h-2.4V145.44z"/>
	<path class="st81" d="M295.64,157.51c-3.37,0-6.13-2.53-6.13-6.13c0-3.58,2.76-6.11,6.13-6.11c3.41,0,6.11,2.53,6.11,6.11
		C301.75,154.98,299.03,157.51,295.64,157.51z M295.64,155.37c2.16,0,3.65-1.56,3.65-3.99s-1.49-3.95-3.65-3.95
		c-2.17,0-3.66,1.52-3.66,3.95S293.47,155.37,295.64,155.37z"/>
	<path class="st81" d="M314.78,145.43v11.97h-2.4l-5.43-8.2v8.2h-2.4v-11.97h2.4l5.43,8.22v-8.22H314.78z"/>
	<path class="st81" d="M325.5,155.12h-4.76l-0.79,2.28h-2.52l4.3-11.97h2.79l4.3,11.97h-2.53L325.5,155.12z M323.12,148.2l-1.73,5
		h3.46L323.12,148.2z"/>
	<path class="st81" d="M333.86,145.44v10.05h3.94v1.9h-6.33v-11.95H333.86z"/>
	<path class="st81" d="M350,145.44h2.41v8.39c0,2.36-1.51,3.68-3.71,3.68c-2.24,0-3.82-1.35-3.82-3.77h2.4
		c0.02,1.01,0.48,1.63,1.39,1.63c0.89,0,1.33-0.6,1.33-1.54V145.44z"/>
	<path class="st81" d="M361.78,157.51c-3.37,0-6.13-2.53-6.13-6.13c0-3.58,2.76-6.11,6.13-6.11c3.41,0,6.11,2.53,6.11,6.11
		C367.89,154.98,365.17,157.51,361.78,157.51z M361.78,155.37c2.16,0,3.65-1.56,3.65-3.99s-1.49-3.95-3.65-3.95
		c-2.17,0-3.66,1.52-3.66,3.95S359.6,155.37,361.78,155.37z"/>
	<path class="st81" d="M370.7,145.44h2.4v11.95h-2.4V145.44z"/>
	<path class="st81" d="M386.7,145.43v11.97h-2.4l-5.43-8.2v8.2h-2.4v-11.97h2.4l5.43,8.22v-8.22H386.7z"/>
	<path class="st81" d="M389.46,145.44h8.77v1.93h-3.18v10.02h-2.4v-10.02h-3.18V145.44z"/>
	<path class="st81" d="M411.58,145.29c2.65,0,4.81,1.42,5.62,3.87h-2.76c-0.56-1.15-1.59-1.71-2.88-1.71
		c-2.09,0-3.58,1.52-3.58,3.95c0,2.41,1.49,3.96,3.58,3.96c1.28,0,2.31-0.57,2.88-1.73h2.76c-0.8,2.47-2.96,3.87-5.62,3.87
		c-3.44,0-6.06-2.52-6.06-6.09S408.14,145.29,411.58,145.29z"/>
	<path class="st81" d="M425.82,157.51c-3.37,0-6.13-2.53-6.13-6.13c0-3.58,2.76-6.11,6.13-6.11c3.41,0,6.11,2.53,6.11,6.11
		C431.94,154.98,429.21,157.51,425.82,157.51z M425.82,155.37c2.16,0,3.65-1.56,3.65-3.99s-1.49-3.95-3.65-3.95
		c-2.17,0-3.66,1.52-3.66,3.95S423.65,155.37,425.82,155.37z"/>
	<path class="st81" d="M444.96,145.43v11.97h-2.4l-5.43-8.2v8.2h-2.4v-11.97h2.4l5.43,8.22v-8.22H444.96z"/>
	<path class="st81" d="M448.35,145.44h7.38v1.93h-4.98v3.06h3.82v1.9h-3.82v5.05h-2.4V145.44z"/>
	<path class="st81" d="M465.39,147.38h-4.54v3h4.02v1.9h-4.02v3.17h4.54v1.95h-6.93v-11.97h6.93V147.38z"/>
	<path class="st81" d="M473.08,145.44c2.88,0,4.31,1.66,4.31,3.66c0,1.46-0.8,2.93-2.72,3.44l2.86,4.85h-2.77l-2.64-4.66h-1.13v4.66
		h-2.4v-11.95H473.08z M472.99,147.43h-2v3.51h2c1.34,0,1.93-0.7,1.93-1.78C474.92,148.1,474.33,147.43,472.99,147.43z"/>
	<path class="st81" d="M487.52,147.38h-4.54v3h4.02v1.9h-4.02v3.17h4.54v1.95h-6.93v-11.97h6.93V147.38z"/>
	<path class="st81" d="M500.95,145.43v11.97h-2.4l-5.43-8.2v8.2h-2.4v-11.97h2.4l5.43,8.22v-8.22H500.95z"/>
	<path class="st81" d="M509.82,145.29c2.65,0,4.81,1.42,5.62,3.87h-2.76c-0.56-1.15-1.59-1.71-2.88-1.71
		c-2.09,0-3.58,1.52-3.58,3.95c0,2.41,1.49,3.96,3.58,3.96c1.28,0,2.31-0.57,2.88-1.73h2.76c-0.8,2.47-2.96,3.87-5.62,3.87
		c-3.44,0-6.06-2.52-6.06-6.09S506.37,145.29,509.82,145.29z"/>
	<path class="st81" d="M525.45,147.38h-4.54v3h4.02v1.9h-4.02v3.17h4.54v1.95h-6.93v-11.97h6.93V147.38z"/>
	<path class="st81" d="M539.3,157.51c-3.37,0-6.13-2.53-6.13-6.13c0-3.58,2.76-6.11,6.13-6.11c3.41,0,6.11,2.53,6.11,6.11
		C545.41,154.98,542.69,157.51,539.3,157.51z M539.3,155.37c2.16,0,3.65-1.56,3.65-3.99s-1.49-3.95-3.65-3.95
		c-2.17,0-3.66,1.52-3.66,3.95S537.12,155.37,539.3,155.37z"/>
	<path class="st81" d="M558.44,145.43v11.97h-2.4l-5.43-8.2v8.2h-2.4v-11.97h2.4l5.43,8.22v-8.22H558.44z"/>
	<path class="st81" d="M577.15,145.43v11.97h-2.4l-5.43-8.2v8.2h-2.4v-11.97h2.4l5.43,8.22v-8.22H577.15z"/>
	<path class="st81" d="M587.47,147.38h-4.54v3h4.02v1.9h-4.02v3.17h4.54v1.95h-6.93v-11.97h6.93V147.38z"/>
	<path class="st81" d="M590.64,145.44h2.4v7.4c0,1.64,0.89,2.5,2.41,2.5c1.54,0,2.43-0.86,2.43-2.5v-7.4h2.41v7.38
		c0,3.15-2.26,4.69-4.88,4.69s-4.78-1.54-4.78-4.69V145.44z"/>
	<path class="st81" d="M608.12,145.44c2.88,0,4.31,1.66,4.31,3.66c0,1.46-0.8,2.93-2.72,3.44l2.86,4.85h-2.77l-2.64-4.66h-1.13v4.66
		h-2.4v-11.95H608.12z M608.03,147.43h-2v3.51h2c1.34,0,1.93-0.7,1.93-1.78C609.97,148.1,609.37,147.43,608.03,147.43z"/>
	<path class="st81" d="M622.96,155.12h-4.76l-0.79,2.28h-2.52l4.3-11.97h2.79l4.3,11.97h-2.53L622.96,155.12z M620.58,148.2l-1.73,5
		h3.46L620.58,148.2z"/>
	<path class="st81" d="M631.32,145.44v10.05h3.94v1.9h-6.33v-11.95H631.32z"/>
	<path class="st81" d="M653.13,145.43v11.97h-2.4l-5.43-8.2v8.2h-2.4v-11.97h2.4l5.43,8.22v-8.22H653.13z"/>
	<path class="st81" d="M663.45,147.38h-4.54v3h4.02v1.9h-4.02v3.17h4.54v1.95h-6.93v-11.97h6.93V147.38z"/>
	<path class="st81" d="M666.02,145.44h8.77v1.93h-3.18v10.02h-2.4v-10.02h-3.18V145.44z"/>
	<path class="st81" d="M676.75,145.44h2.57l2.11,9.28l2.43-9.28h2.67l2.29,9.23l2.12-9.23h2.58l-3.34,11.95h-2.83l-2.24-8.51
		l-2.34,8.51l-2.81,0.02L676.75,145.44z"/>
	<path class="st81" d="M701.66,157.51c-3.37,0-6.13-2.53-6.13-6.13c0-3.58,2.76-6.11,6.13-6.11c3.41,0,6.11,2.53,6.11,6.11
		C707.77,154.98,705.05,157.51,701.66,157.51z M701.66,155.37c2.16,0,3.65-1.56,3.65-3.99s-1.49-3.95-3.65-3.95
		c-2.17,0-3.66,1.52-3.66,3.95S699.49,155.37,701.66,155.37z"/>
	<path class="st81" d="M715.07,145.44c2.88,0,4.31,1.66,4.31,3.66c0,1.46-0.8,2.93-2.72,3.44l2.86,4.85h-2.77l-2.64-4.66h-1.13v4.66
		h-2.4v-11.95H715.07z M714.98,147.43h-2v3.51h2c1.34,0,1.93-0.7,1.93-1.78C716.92,148.1,716.32,147.43,714.98,147.43z"/>
	<path class="st81" d="M724.98,152.07v5.32h-2.4v-11.95h2.4v5.36l4.35-5.36h2.89l-4.93,5.92l5.07,6.03h-3.03L724.98,152.07z"/>
	<path class="st81" d="M739.09,157.51c-2.48,0-4.4-1.3-4.43-3.56h2.57c0.07,0.96,0.7,1.59,1.81,1.59c1.13,0,1.8-0.6,1.8-1.46
		c0-2.59-6.16-1.03-6.15-5.36c0-2.16,1.75-3.46,4.21-3.46c2.45,0,4.13,1.25,4.28,3.41h-2.64c-0.05-0.79-0.68-1.4-1.71-1.42
		c-0.94-0.03-1.64,0.43-1.64,1.4c0,2.4,6.13,1.06,6.13,5.27C743.32,155.82,741.81,157.51,739.09,157.51z"/>
</g>
<g>
	<g id="Artwork_1_00000002349521431036956620000007317720785592974737_">
		<g>
			<text transform="matrix(1.0248 0 0 1 231.7149 38.6036)" class="st82 st83 st84">I</text>
			<g>
				<path class="st82" d="M254.78,38.58l-2.19,0.05l-0.2-0.12c-0.39-0.6-0.99-1.59-2.34-3.87l-6.83-11.81
					c0.02,2.38,0.05,4.76,0.07,7.14c0.02,4.21,0.05,4.71,0.17,8.46l-0.15,0.17l-1.31,0.02l-0.15-0.14c0-1.8,0.02-3.58,0.02-5.39
					c0-3.94-0.07-6.66-0.2-11.35l0.15-0.14l2.17-0.05l0.22,0.14c0.49,0.77,0.52,0.82,1.13,1.88c0.76,1.3,1.73,2.89,2.93,4.88
					l5.15,8.92c-0.05-7.53-0.07-9.47-0.27-15.66l0.12-0.12l1.31-0.05l0.15,0.12c-0.02,1.25-0.05,2.26-0.05,3.8
					c0,4.04,0.05,8.99,0.22,12.96L254.78,38.58z"/>
				<path class="st82" d="M263.89,38.6l-1.48,0.02l-0.17-0.14c0.03-2.5,0.05-5.03,0.05-7.53c0-2.69-0.02-5.39-0.05-8.06l-5.22,0.1
					l-0.17-0.14l0.1-1.18l0.17-0.12l2.54,0.07h5.84l3.52-0.07l0.15,0.12l-0.1,1.2L268.92,23c-1.82-0.07-2.39-0.12-5.08-0.12
					c0,7.05,0.02,8.8,0.2,15.56L263.89,38.6z"/>
				<path class="st82" d="M280.89,38.6h-7.52l-2,0.1l-0.17-0.17c0.02-1.54,0.05-2.45,0.05-3.73c0-4.35-0.07-8.71-0.22-13.06
					l0.15-0.14l1.72,0.02h4.41l3.47-0.05l0.15,0.12l-0.07,1.15l-0.2,0.14l-6.48-0.07l-1.41-0.02v6.2h2.44l5.18-0.05l0.15,0.14
					l-0.05,1.08l-0.22,0.12c-0.99-0.02-1.63-0.05-2.61-0.05c-0.84,0-1.68,0-2.51,0.02h-2.34l0.12,6.93h2.14l5.91-0.1l0.1,0.14
					l-0.1,1.18L280.89,38.6z"/>
				<path class="st82" d="M287.61,21.53c2.07-0.02,3.23,0,4.26,0.34c2.79,0.96,2.86,3.7,2.86,4.11c0,1.3-0.59,2.43-1.31,3.13
					c-1.16,1.18-2.51,1.4-3.6,1.54l1.8,2.31c0.57,0.72,1.11,1.42,1.68,2.12c0.37,0.48,2.22,2.79,2.64,3.29l-0.1,0.22h-0.81
					c-0.32,0.02-0.62,0.05-0.94,0.07l-0.25-0.14c-1.18-1.61-1.43-1.92-3.65-4.81c-1.77-2.31-1.92-2.48-2.24-2.86l-2.24,0.02
					c0.02,3.34,0.02,4.26,0.17,7.6l-0.15,0.14l-1.5,0.02l-0.15-0.14c0.05-1.66,0.05-2.4,0.05-3.78c0-4.33-0.05-8.66-0.22-12.96
					l0.15-0.14L287.61,21.53z M285.69,29.61c3.03-0.02,4.17-0.07,5.27-0.5c0.79-0.31,2.14-1.06,2.14-3.1c0-3.2-3.13-3.2-4.51-3.2
					c-0.94,0-1.82,0.05-2.91,0.07V29.61z"/>
				<path class="st82" d="M311.39,38.58l-2.19,0.05l-0.2-0.12c-0.39-0.6-0.99-1.59-2.34-3.87l-6.83-11.81
					c0.02,2.38,0.05,4.76,0.07,7.14c0.02,4.21,0.05,4.71,0.17,8.46l-0.15,0.17l-1.31,0.02l-0.15-0.14c0-1.8,0.02-3.58,0.02-5.39
					c0-3.94-0.07-6.66-0.2-11.35l0.15-0.14l2.17-0.05l0.22,0.14c0.49,0.77,0.52,0.82,1.13,1.88c0.76,1.3,1.72,2.89,2.93,4.88
					l5.15,8.92c-0.05-7.53-0.07-9.47-0.27-15.66l0.12-0.12l1.31-0.05l0.15,0.12c-0.02,1.25-0.05,2.26-0.05,3.8
					c0,4.04,0.05,8.99,0.22,12.96L311.39,38.58z"/>
				<path class="st82" d="M327.18,38.56l-1.68,0.05l-0.15-0.17c-0.57-2.09-0.71-2.65-1.45-4.91l-0.2-0.58h-6.33l-0.49,0.02
					l-0.3,0.87c-0.69,2.16-0.84,2.65-1.36,4.62l-0.2,0.14h-1.45l-0.12-0.22c0.86-2.31,1.11-3.01,1.92-5.46l3.79-11.18l0.15-0.14
					l2.09-0.05l0.17,0.12l1.33,3.97l1.82,5.34c1.23,3.73,1.6,4.79,2.56,7.41L327.18,38.56z M317.27,31.65
					c0.94,0.02,1.87,0.02,2.81,0.02c1.06,0,2.05-0.02,3.15-0.02l-3.01-9.19L317.27,31.65z"/>
				<path class="st82" d="M332.4,38.6l-1.48,0.02l-0.17-0.14c0.03-2.5,0.05-5.03,0.05-7.53c0-2.69-0.02-5.39-0.05-8.06l-5.22,0.1
					l-0.17-0.14l0.1-1.18l0.17-0.12l2.54,0.07H334l3.52-0.07l0.15,0.12l-0.1,1.2L337.43,23c-1.82-0.07-2.39-0.12-5.08-0.12
					c0,7.05,0.02,8.8,0.2,15.56L332.4,38.6z"/>
				<path class="st82" d="M341.39,38.6l-1.53,0.02l-0.15-0.14c0.02-1.37,0.05-2.33,0.05-3.87c0-3.15-0.05-8.8-0.22-12.87l0.15-0.12
					l1.53-0.05l0.15,0.14c0,1.88-0.03,3.75-0.03,5.63c0,4.14,0.07,6.54,0.2,11.11L341.39,38.6z"/>
				<path class="st82" d="M352.48,38.96c-2.34,0-4.12-0.65-5.35-1.8c-1.9-1.76-2.64-4.33-2.64-7.09c0-4.38,2.19-8.8,8.01-8.8
					c5.42,0,7.79,3.78,7.79,8.85C360.29,35.5,357.38,38.96,352.48,38.96z M357.23,24.73c-1.65-2.19-3.97-2.19-4.63-2.19
					c-1.8,0-3.15,0.5-4.07,1.27c-1.16,1.01-2.39,3.2-2.39,6.28c0,2.89,1.11,7.6,6.23,7.6c1.28,0,2.29-0.26,3.01-0.65
					c2.14-1.11,3.28-3.78,3.25-6.93C358.64,29.2,358.52,26.46,357.23,24.73z"/>
				<path class="st82" d="M376.35,38.58l-2.19,0.05l-0.2-0.12c-0.39-0.6-0.99-1.59-2.34-3.87l-6.83-11.81
					c0.02,2.38,0.05,4.76,0.07,7.14c0.02,4.21,0.05,4.71,0.17,8.46l-0.15,0.17l-1.31,0.02l-0.15-0.14c0-1.8,0.02-3.58,0.02-5.39
					c0-3.94-0.07-6.66-0.2-11.35l0.15-0.14l2.17-0.05l0.22,0.14c0.49,0.77,0.52,0.82,1.13,1.88c0.76,1.3,1.72,2.89,2.93,4.88
					l5.15,8.92c-0.05-7.53-0.07-9.47-0.27-15.66l0.12-0.12l1.31-0.05l0.15,0.12c-0.02,1.25-0.05,2.26-0.05,3.8
					c0,4.04,0.05,8.99,0.22,12.96L376.35,38.58z"/>
				<path class="st82" d="M392.14,38.56l-1.68,0.05l-0.15-0.17c-0.57-2.09-0.71-2.65-1.45-4.91l-0.2-0.58h-6.33l-0.49,0.02
					l-0.3,0.87c-0.69,2.16-0.84,2.65-1.36,4.62l-0.2,0.14h-1.45l-0.12-0.22c0.86-2.31,1.11-3.01,1.92-5.46l3.79-11.18l0.15-0.14
					l2.09-0.05l0.17,0.12l1.33,3.97l1.82,5.34c1.23,3.73,1.6,4.79,2.56,7.41L392.14,38.56z M382.24,31.65
					c0.94,0.02,1.87,0.02,2.81,0.02c1.06,0,2.05-0.02,3.15-0.02l-3.01-9.19L382.24,31.65z"/>
				<path class="st82" d="M403.13,38.65l-1.77-0.05h-4.8l-2.07,0.05l-0.15-0.14c0-1.71,0.03-3.39,0.03-5.1l-0.03-3.1l-0.05-3.15
					c-0.02-2.98-0.02-3.29-0.12-5.39l0.15-0.14l1.55-0.05l0.15,0.14c-0.05,2.77-0.07,4.76-0.07,7.09c0,2.84,0.05,5.68,0.1,8.51h1.43
					c3.06-0.02,3.67-0.05,5.77-0.14l0.15,0.17l-0.1,1.15L403.13,38.65z"/>
			</g>
			<g>
				<path class="st82" d="M435.34,38.57l-3.13,0.07l-0.28-0.17c-0.56-0.86-1.41-2.27-3.34-5.53l-9.75-16.86
					c0.04,3.4,0.07,6.8,0.11,10.2c0.04,6.01,0.07,6.73,0.25,12.09l-0.21,0.24l-1.86,0.03l-0.21-0.21c0-2.58,0.04-5.12,0.04-7.69
					c0-5.63-0.11-9.51-0.28-16.21l0.21-0.21l3.1-0.07l0.32,0.21c0.7,1.1,0.74,1.17,1.62,2.68c1.09,1.85,2.46,4.12,4.19,6.97
					l7.35,12.74c-0.07-10.75-0.11-13.53-0.39-22.36l0.18-0.17l1.87-0.07l0.21,0.17c-0.04,1.79-0.07,3.23-0.07,5.43
					c0,5.77,0.07,12.85,0.32,18.51L435.34,38.57z"/>
			</g>
			<g>
				<path class="st82" d="M450,38.6h-7.52l-2,0.1l-0.17-0.17c0.02-1.54,0.05-2.45,0.05-3.73c0-4.35-0.07-8.71-0.22-13.06l0.15-0.14
					l1.72,0.02h4.41l3.47-0.05l0.15,0.12l-0.07,1.15l-0.2,0.14l-6.48-0.07l-1.41-0.02v6.2h2.44l5.18-0.05l0.15,0.14l-0.05,1.08
					l-0.22,0.12c-0.99-0.02-1.63-0.05-2.61-0.05c-0.84,0-1.68,0-2.51,0.02h-2.34l0.12,6.93h2.14l5.91-0.1l0.1,0.14l-0.1,1.18
					L450,38.6z"/>
				<path class="st82" d="M465.65,21.72v6.54l-0.03,3.17c0,1.37-0.02,2.72-0.29,3.68c-0.59,2.12-2.69,3.85-6.06,3.85
					c-1.01,0-2.07-0.17-2.91-0.51c-0.99-0.38-1.92-1.15-2.44-2.04c-0.76-1.3-0.76-2.98-0.76-4.59l0.05-7.19c0-0.94,0-1.49-0.05-2.86
					l0.15-0.17l1.58-0.05L455,21.7c-0.07,3.37-0.15,6.3-0.15,9.23c0,2.43,0.02,3.73,0.64,4.79c1.06,1.8,2.96,1.9,3.89,1.9
					c0.84,0,2.39-0.07,3.52-1.25c0.54-0.55,0.74-1.03,0.81-1.27c0.42-1.11,0.42-1.95,0.42-4.64c0-5.05-0.02-5.7-0.12-8.68l0.15-0.17
					l1.33-0.02L465.65,21.72z"/>
				<path class="st82" d="M473.73,21.53c2.07-0.02,3.23,0,4.26,0.34c2.79,0.96,2.86,3.7,2.86,4.11c0,1.3-0.59,2.43-1.31,3.13
					c-1.16,1.18-2.51,1.4-3.6,1.54l1.8,2.31c0.57,0.72,1.11,1.42,1.68,2.12c0.37,0.48,2.22,2.79,2.64,3.29l-0.1,0.22h-0.81
					c-0.32,0.02-0.62,0.05-0.94,0.07l-0.25-0.14c-1.18-1.61-1.43-1.92-3.65-4.81c-1.77-2.31-1.92-2.48-2.24-2.86l-2.24,0.02
					c0.02,3.34,0.02,4.26,0.17,7.6l-0.15,0.14l-1.5,0.02l-0.15-0.14c0.05-1.66,0.05-2.4,0.05-3.78c0-4.33-0.05-8.66-0.22-12.96
					l0.15-0.14L473.73,21.53z M471.8,29.61c3.03-0.02,4.17-0.07,5.27-0.5c0.79-0.31,2.14-1.06,2.14-3.1c0-3.2-3.13-3.2-4.51-3.2
					c-0.94,0-1.82,0.05-2.91,0.07V29.61z"/>
				<path class="st82" d="M496.29,38.56l-1.68,0.05l-0.15-0.17c-0.57-2.09-0.71-2.65-1.45-4.91l-0.2-0.58h-6.33l-0.49,0.02
					l-0.3,0.87c-0.69,2.16-0.84,2.65-1.36,4.62l-0.2,0.14h-1.45l-0.12-0.22c0.86-2.31,1.11-3.01,1.92-5.46l3.79-11.18l0.15-0.14
					l2.09-0.05l0.17,0.12l1.33,3.97l1.82,5.34c1.23,3.73,1.6,4.79,2.56,7.41L496.29,38.56z M486.39,31.65
					c0.94,0.02,1.87,0.02,2.81,0.02c1.06,0,2.04-0.02,3.15-0.02l-3.01-9.19L486.39,31.65z"/>
				<path class="st82" d="M507.31,38.65l-1.77-0.05h-4.8l-2.07,0.05l-0.15-0.14c0-1.71,0.03-3.39,0.03-5.1l-0.03-3.1l-0.05-3.15
					c-0.02-2.98-0.02-3.29-0.12-5.39l0.15-0.14l1.55-0.05l0.15,0.14c-0.05,2.77-0.07,4.76-0.07,7.09c0,2.84,0.05,5.68,0.1,8.51h1.43
					c3.06-0.02,3.67-0.05,5.77-0.14l0.15,0.17l-0.1,1.15L507.31,38.65z"/>
			</g>
			<g>
				<path class="st82" d="M539.49,38.57l-3.13,0.07l-0.28-0.17c-0.56-0.86-1.41-2.27-3.34-5.53l-9.75-16.86
					c0.04,3.4,0.07,6.8,0.11,10.2c0.04,6.01,0.07,6.73,0.25,12.09l-0.21,0.24l-1.86,0.03l-0.21-0.21c0-2.58,0.04-5.12,0.04-7.69
					c0-5.63-0.11-9.51-0.28-16.21l0.21-0.21l3.1-0.07l0.32,0.21c0.7,1.1,0.74,1.17,1.62,2.68c1.09,1.85,2.46,4.12,4.19,6.97
					l7.35,12.74c-0.07-10.75-0.11-13.53-0.39-22.36l0.18-0.17l1.87-0.07l0.21,0.17c-0.04,1.79-0.07,3.23-0.07,5.43
					c0,5.77,0.07,12.85,0.32,18.51L539.49,38.57z"/>
			</g>
			<g>
				<path class="st82" d="M554.15,38.6h-7.52l-2,0.1l-0.17-0.17c0.02-1.54,0.05-2.45,0.05-3.73c0-4.35-0.07-8.71-0.22-13.06
					l0.15-0.14l1.72,0.02h4.41l3.47-0.05l0.15,0.12l-0.07,1.15l-0.2,0.14l-6.48-0.07l-1.41-0.02v6.2h2.44l5.18-0.05l0.15,0.14
					l-0.05,1.08l-0.22,0.12c-0.99-0.02-1.63-0.05-2.61-0.05c-0.84,0-1.68,0-2.51,0.02h-2.34l0.12,6.93h2.14l5.91-0.1l0.1,0.14
					l-0.1,1.18L554.15,38.6z"/>
				<path class="st82" d="M561.89,38.6l-1.48,0.02l-0.17-0.14c0.03-2.5,0.05-5.03,0.05-7.53c0-2.69-0.02-5.39-0.05-8.06l-5.22,0.1
					l-0.17-0.14l0.1-1.18l0.17-0.12l2.54,0.07h5.84l3.52-0.07l0.15,0.12l-0.1,1.2L566.92,23c-1.82-0.07-2.39-0.12-5.08-0.12
					c0,7.05,0.02,8.8,0.2,15.56L561.89,38.6z"/>
				<path class="st82" d="M584.11,38.6l-2.07,0.05l-0.17-0.17l-1.06-4.23L578,22.49l-2.19,9.33l-1.58,6.64l-0.2,0.14l-2.07,0.05
					l-0.17-0.1l-1.31-5.65l-0.86-3.54l-1.87-7.6l0.12-0.14l1.55-0.07l0.15,0.14c0.67,3.32,0.81,3.99,1.75,8.15l1.75,7.65l2.61-10.99
					l1.11-4.74l0.17-0.14c0.96,0,1.18,0,2.17-0.05l0.17,0.12l1.36,5.65l2.46,10.12l2.12-9.45l1.33-6.28l0.15-0.12h1.36l0.15,0.14
					l-1.31,5.24l-1.36,5.6c-0.67,2.86-0.79,3.44-1.28,5.84L584.11,38.6z"/>
				<path class="st82" d="M596.9,38.96c-2.34,0-4.12-0.65-5.35-1.8c-1.9-1.76-2.64-4.33-2.64-7.09c0-4.38,2.19-8.8,8.01-8.8
					c5.42,0,7.79,3.78,7.79,8.85C604.71,35.5,601.8,38.96,596.9,38.96z M601.65,24.73c-1.65-2.19-3.97-2.19-4.63-2.19
					c-1.8,0-3.15,0.5-4.07,1.27c-1.16,1.01-2.39,3.2-2.39,6.28c0,2.89,1.11,7.6,6.23,7.6c1.28,0,2.29-0.26,3.01-0.65
					c2.14-1.11,3.28-3.78,3.25-6.93C603.06,29.2,602.93,26.46,601.65,24.73z"/>
				<path class="st82" d="M611.38,21.53c2.07-0.02,3.23,0,4.26,0.34c2.79,0.96,2.86,3.7,2.86,4.11c0,1.3-0.59,2.43-1.31,3.13
					c-1.16,1.18-2.51,1.4-3.6,1.54l1.8,2.31c0.57,0.72,1.11,1.42,1.68,2.12c0.37,0.48,2.22,2.79,2.64,3.29l-0.1,0.22h-0.81
					c-0.32,0.02-0.62,0.05-0.94,0.07l-0.25-0.14c-1.18-1.61-1.43-1.92-3.65-4.81c-1.77-2.31-1.92-2.48-2.24-2.86l-2.24,0.02
					c0.02,3.34,0.02,4.26,0.17,7.6l-0.15,0.14l-1.5,0.02l-0.15-0.14c0.05-1.66,0.05-2.4,0.05-3.78c0-4.33-0.05-8.66-0.22-12.96
					l0.15-0.14L611.38,21.53z M609.46,29.61c3.03-0.02,4.17-0.07,5.27-0.5c0.79-0.31,2.14-1.06,2.14-3.1c0-3.2-3.13-3.2-4.51-3.2
					c-0.94,0-1.82,0.05-2.91,0.07V29.61z"/>
				<path class="st82" d="M623.89,38.58l-1.48,0.05l-0.15-0.14c0.03-1.61,0.05-2.48,0.05-3.8c0-4.3-0.07-8.63-0.22-12.94l0.12-0.14
					l1.48-0.02l0.15,0.14v7.82l3.33-3.61c2.66-2.86,2.96-3.17,3.82-4.23l0.22-0.07h1.8l0.07,0.14c-1.18,1.18-1.5,1.52-4.46,4.59
					l-2.93,3.1l1.36,1.44c2.32,2.52,4.66,5.03,7.02,7.48L634,38.58h-0.99c-0.3,0.02-0.59,0.05-0.89,0.07l-0.27-0.12
					c-2.59-3.03-5.25-5.99-8.03-8.87l0.2,8.8L623.89,38.58z"/>
			</g>
			<g>
				<path class="st82" d="M646.89,34.86c0.42,0.38,0.74,0.72,1.41,1.13c1.34,0.86,2.96,1.27,4.57,1.27c3.62,0,5.95-2.1,5.95-4.95
					c0-2.68-1.94-3.81-4.57-4.95l-2.82-1.13c-2.22-1.03-5.17-2.4-5.17-6.08c0-1.96,0.95-3.85,2.6-4.98c1.65-1.1,3.69-1.34,5.35-1.34
					c3.1,0,4.93,0.89,5.84,1.37l0.21,0.27l-0.21,1.68l-0.35,0.17c-1.2-0.72-2.75-1.68-5.56-1.68c-4.93,0-5.63,3.06-5.63,4.36
					c0,2.61,2.22,3.57,4.68,4.53l2.5,1.03c2.11,0.96,5.42,2.47,5.42,6.63c0,3.47-2.64,6.9-8.2,6.9c-1.44,0-4.33-0.34-6.37-1.75
					l-0.14-0.34l0.14-2.1L646.89,34.86z"/>
			</g>
			<g>
				<path class="st82" d="M671.94,38.96c-2.34,0-4.12-0.65-5.35-1.8c-1.9-1.76-2.64-4.33-2.64-7.09c0-4.38,2.19-8.8,8.01-8.8
					c5.42,0,7.79,3.78,7.79,8.85C679.75,35.5,676.84,38.96,671.94,38.96z M676.7,24.73c-1.65-2.19-3.97-2.19-4.63-2.19
					c-1.8,0-3.15,0.5-4.07,1.27c-1.16,1.01-2.39,3.2-2.39,6.28c0,2.89,1.11,7.6,6.23,7.6c1.28,0,2.29-0.26,3.01-0.65
					c2.14-1.11,3.28-3.78,3.25-6.93C678.1,29.2,677.98,26.46,676.7,24.73z"/>
				<path class="st82" d="M695.17,37.69c-0.3,0.17-0.59,0.34-0.89,0.48c-0.94,0.46-2.41,0.79-3.99,0.79c-5.52,0-8.35-4.04-8.35-8.78
					c0-4.45,2.81-8.92,8.5-8.92c2.49,0,3.65,0.58,4.63,1.06l0.12,0.19c-0.12,0.5-0.15,0.62-0.2,1.27l-0.17,0.12
					c-0.71-0.48-1.97-1.32-4.39-1.32c-4.9,0-6.8,4.09-6.8,7.6c0,4.18,2.76,7.43,6.92,7.43c0.91,0,1.82-0.17,2.74-0.53
					c0.94-0.38,1.36-0.72,1.92-1.18l0.2,0.12c-0.1,0.6-0.12,0.75-0.12,1.42L695.17,37.69z"/>
				<path class="st82" d="M699.48,38.6l-1.53,0.02l-0.15-0.14c0.02-1.37,0.05-2.33,0.05-3.87c0-3.15-0.05-8.8-0.22-12.87l0.15-0.12
					l1.53-0.05l0.15,0.14c0,1.88-0.03,3.75-0.03,5.63c0,4.14,0.07,6.54,0.2,11.11L699.48,38.6z"/>
				<path class="st82" d="M713.72,38.6h-7.52l-2,0.1l-0.17-0.17c0.02-1.54,0.05-2.45,0.05-3.73c0-4.35-0.07-8.71-0.22-13.06
					l0.15-0.14l1.72,0.02h4.41l3.47-0.05l0.15,0.12l-0.07,1.15L713.5,23l-6.48-0.07l-1.41-0.02v6.2h2.44l5.18-0.05l0.15,0.14
					l-0.05,1.08l-0.22,0.12c-0.99-0.02-1.63-0.05-2.61-0.05c-0.84,0-1.68,0-2.51,0.02h-2.34l0.12,6.93h2.14l5.91-0.1l0.1,0.14
					l-0.1,1.18L713.72,38.6z"/>
				<path class="st82" d="M721.46,38.6l-1.48,0.02l-0.17-0.14c0.03-2.5,0.05-5.03,0.05-7.53c0-2.69-0.02-5.39-0.05-8.06l-5.22,0.1
					l-0.17-0.14l0.1-1.18l0.17-0.12l2.54,0.07h5.84l3.52-0.07l0.15,0.12l-0.1,1.2L726.48,23c-1.82-0.07-2.39-0.12-5.08-0.12
					c0,7.05,0.02,8.8,0.2,15.56L721.46,38.6z"/>
				<path class="st82" d="M734.14,38.6l-1.48,0.05l-0.17-0.17c0.05-1.4,0.07-2.81,0.07-4.21c0-0.99-0.02-1.71-0.05-2.55l-2.54-4.88
					l-2.66-5l0.12-0.19l1.6-0.12l0.22,0.14c0.57,1.27,0.76,1.71,1.55,3.29l2.64,5.34L735,27.4c1.04-1.97,1.45-2.77,2.83-5.68
					l0.2-0.12h1.43l0.15,0.19l-2.81,5.03l-2.64,4.81l0.12,6.83L734.14,38.6z"/>
			</g>
		</g>
	</g>
	<g id="Artwork_3_00000075126835110003629590000000489595099547066543_">
		<g>
			<defs>
				<rect id="SVGID_00000174559650083261154900000004400839359305813134_" x="190.27" y="8.4" width="35.2" height="35.21"/>
			</defs>
			<clipPath id="SVGID_00000144305695165638153960000006461249475461255074_">
				<use xlink:href="#SVGID_00000174559650083261154900000004400839359305813134_"  style="overflow:visible;"/>
			</clipPath>
			<g style="clip-path:url(#SVGID_00000144305695165638153960000006461249475461255074_);">
				<defs>
					<rect id="SVGID_00000162315807316672685470000011318815754473642892_" x="190.27" y="8.4" width="35.2" height="35.21"/>
				</defs>
				<clipPath id="SVGID_00000179613698865598637540000003004712821667815829_">
					<use xlink:href="#SVGID_00000162315807316672685470000011318815754473642892_"  style="overflow:visible;"/>
				</clipPath>
				<path style="clip-path:url(#SVGID_00000179613698865598637540000003004712821667815829_);fill:#1E589E;" d="M190.27,26
					c-0.01-9.65,7.8-17.6,17.61-17.6c9.77,0,17.79,8,17.6,17.97c-0.18,9.36-7.76,17.24-17.61,17.24
					C197.97,43.61,190.25,35.57,190.27,26 M191.02,26c-0.04,9.15,7.37,16.85,16.81,16.87c9.4,0.02,16.91-7.56,16.91-16.86
					c0-9.29-7.48-16.85-16.82-16.87C198.4,9.11,190.98,16.86,191.02,26"/>
				<path style="clip-path:url(#SVGID_00000179613698865598637540000003004712821667815829_);fill:#1E589E;" d="M204.5,10.68
					c0.43,0.08,0.8,0.25,1.15,0.45c0.4,0.23,0.8,0.47,1.26,0.57c0.44,0.1,0.89,0.1,1.33,0.04c0.08-0.01,0.17-0.02,0.28-0.04
					c-0.68-0.67-1.48-1.14-2.27-1.62c0-0.02,0.01-0.04,0.01-0.05c0.19-0.04,0.39-0.09,0.58-0.11c0.46-0.03,0.93-0.06,1.39-0.05
					c1.88,0.06,3.7,0.4,5.46,1.07c0.46,0.17,0.88,0.43,1.32,0.65c0.12,0.06,0.16,0.15,0.16,0.29c-0.01,1.24-0.02,2.48-0.03,3.72
					c0,0.05-0.01,0.1-0.01,0.16h-3.85c0.01,0.15,0.02,0.29,0.03,0.45c-0.56,0.04-1.09-0.02-1.6-0.24c-0.12-0.05-0.25-0.11-0.37-0.17
					c-0.47-0.27-0.95-0.26-1.45-0.07c-0.72,0.28-1.36,0.69-2,1.11c-0.61,0.41-1.23,0.82-1.82,1.25c-0.6,0.43-1.24,0.75-1.95,0.96
					c-0.59,0.17-1.17,0.38-1.76,0.57c-0.05,0.02-0.1,0.03-0.17,0.05c0.07-0.24,0.21-0.41,0.39-0.51c0.37-0.22,0.77-0.4,1.16-0.6
					c0.08-0.04,0.17-0.07,0.28-0.12c-0.13-0.14-0.24-0.27-0.37-0.42c0.12-0.02,0.21-0.03,0.31-0.04c0.43-0.04,0.86-0.04,1.28-0.11
					c0.38-0.06,0.66-0.28,0.79-0.66c0.04-0.12,0.03-0.18-0.1-0.21c-0.21-0.05-0.43-0.09-0.64-0.16c-0.18-0.06-0.35-0.15-0.53-0.23
					c0.01-0.02,0.01-0.04,0.02-0.06c0.33,0,0.66,0,1,0c0.44-0.01,0.88,0.01,1.31-0.04c0.23-0.03,0.45-0.17,0.65-0.3
					c0.65-0.42,1.29-0.83,2.02-1.11c0.55-0.21,1.09-0.23,1.65-0.03c0.47,0.17,0.96,0.29,1.44,0.44c0.05,0.02,0.11,0.01,0.17,0.02
					c0-0.08,0.01-0.14,0-0.2c-0.09-0.28-0.17-0.56-0.27-0.84c-0.19-0.48-0.55-0.71-1.06-0.76c-0.87-0.09-1.72,0.05-2.54,0.3
					c-0.84,0.25-1.67,0.54-2.47,0.88c-0.9,0.39-1.83,0.68-2.78,0.9c-0.2,0.05-0.39,0.11-0.59,0.17c-0.55,0.16-0.89,0.54-1.07,1.07
					c-0.1,0.3-0.18,0.61-0.28,0.91c-0.05,0.15-0.13,0.28-0.2,0.42c-0.02,0-0.03-0.01-0.05-0.01c0-0.04,0-0.08,0-0.12
					c0-0.01,0.01-0.02,0.01-0.03c0.07-0.52-0.11-0.65-0.57-0.62c-0.47,0.03-0.84,0.28-1.19,0.57c-0.76,0.64-1.35,1.43-1.82,2.31
					c-0.05,0.09-0.13,0.17-0.2,0.24c-0.16,0.15-0.33,0.3-0.52,0.43c0.1-0.32,0.2-0.64,0.31-0.95c0.02-0.06,0.04-0.12,0.06-0.18
					c0.06-0.17,0.06-0.31-0.07-0.45c-0.07-0.07-0.1-0.17-0.16-0.27c0.15-0.04,0.27-0.07,0.39-0.1c0.24-0.06,0.46-0.16,0.62-0.36
					c0.29-0.35,0.59-0.7,0.88-1.06c0.08-0.11,0.14-0.25,0.18-0.38c0.05-0.19-0.02-0.32-0.21-0.35c-0.21-0.03-0.43-0.03-0.64-0.03
					c-0.27,0.01-0.53,0.04-0.8,0.05c-0.06,0-0.13-0.02-0.21-0.03c0.16-0.23,0.37-0.38,0.6-0.42c0.6-0.11,1.04-0.43,1.43-0.89
					c0.22-0.27,0.55-0.47,0.86-0.65c0.16-0.1,0.38-0.1,0.57-0.13c0.29-0.04,0.48-0.2,0.65-0.43c0.37-0.49,0.75-0.97,1.16-1.41
					c0.71-0.76,1.62-1.17,2.65-1.33c0.34-0.05,0.67-0.18,1.01-0.27c0.06-0.02,0.12-0.06,0.2-0.1
					C204.77,11.17,204.64,10.93,204.5,10.68 M209.24,12.6c-0.01,0.02-0.01,0.04-0.02,0.06c-0.53-0.07-1.05-0.13-1.57-0.22
					c-0.88-0.14-1.76-0.25-2.65-0.15c-0.56,0.06-1.05,0.26-1.37,0.77c-0.06,0.09-0.12,0.18-0.19,0.26
					c-0.16,0.21-0.34,0.39-0.58,0.51c0-0.48,0.33-0.84,0.43-1.3c-0.05,0-0.08,0-0.1,0c-0.75,0.19-1.39,0.55-1.88,1.15
					c-0.28,0.34-0.46,0.72-0.43,1.18c0.01,0.12,0.03,0.2,0.16,0.22c0.22,0.04,0.44,0.1,0.67,0.11c0.69,0.01,1.33-0.23,1.96-0.48
					c0.98-0.4,1.96-0.81,2.96-1.18c0.95-0.35,1.92-0.59,2.95-0.5c0.07,0.01,0.15,0.04,0.2,0.09c0.17,0.17,0.32,0.35,0.49,0.52
					c0.05,0.05,0.13,0.09,0.2,0.09c0.86,0,1.72-0.02,2.58-0.02c0.11,0,0.14-0.04,0.14-0.14c0.01-0.24,0.02-0.49,0.03-0.73
					c0-0.18,0-0.36,0-0.55c-1.4-0.02-2.77-0.04-4.17-0.06C209.12,12.38,209.18,12.49,209.24,12.6 M198.23,16.59
					c0,0.27,0.09,0.38,0.36,0.37c0.45-0.02,0.86-0.15,1.18-0.47c0.13-0.13,0.23-0.32,0.3-0.5c0.08-0.23-0.03-0.4-0.24-0.43
					c-0.49-0.08-0.93,0.03-1.31,0.36C198.34,16.08,198.22,16.29,198.23,16.59"/>
				<path style="clip-path:url(#SVGID_00000179613698865598637540000003004712821667815829_);fill:#1E589E;" d="M208.83,34.55
					c-1.04,0.08-2.04,0.36-3.08,0.33c-0.01-0.02-0.02-0.04-0.03-0.05c0.09-0.07,0.17-0.16,0.27-0.2c0.42-0.16,0.83-0.33,1.26-0.43
					c0.69-0.17,1.4-0.25,2.12-0.21c0.32,0.02,0.64,0.1,0.96,0.17c0.09,0.02,0.18,0.09,0.26,0.18c-0.24,0.06-0.48,0.11-0.74,0.18
					c0.47,0.33,0.95,0.59,1.52,0.59c2.05-0.01,4.1-0.03,6.15-0.03c0.14,0,0.15-0.07,0.15-0.18c0.01-1.07,0.02-2.14,0.03-3.21
					c0-0.05,0-0.1,0-0.18c0.08,0,0.14,0,0.21,0c1.26,0,2.52,0,3.77,0c0.16,0,0.21-0.04,0.21-0.21c-0.01-0.99,0-1.98,0-2.98V28.1
					h1.71c0,0.06,0.01,0.11,0.01,0.17c0,0.34-0.02,0.68,0,1.02c0.04,0.73-0.1,1.43-0.31,2.12c-0.23,0.74-0.55,1.45-0.95,2.12
					c-0.06,0.09-0.12,0.13-0.23,0.13c-0.77,0-1.53,0-2.3,0c-0.07,0-0.13,0-0.22,0c-0.08,1.17-0.01,2.33-0.01,3.5
					c-0.08,0-0.15,0-0.21,0c-2.5,0-5,0-7.5,0c-0.45,0-0.91,0-1.36,0.01c-0.08,0-0.18,0.02-0.23,0.07c-0.41,0.43-1.23,0.44-1.78,0.01
					c-0.34-0.26-0.6-0.58-0.67-1.03c-0.11-0.65,0.24-1.31,0.86-1.61C208.74,34.6,208.79,34.57,208.83,34.55"/>
				<path style="clip-path:url(#SVGID_00000179613698865598637540000003004712821667815829_);fill:#1E589E;" d="M209.01,25.14
					c-0.03,0.27-0.2,0.44-0.43,0.51c-0.31,0.09-0.63,0.13-0.95,0.18c-0.47,0.07-0.94,0.16-1.28,0.54c-0.09,0.1-0.16,0.21-0.24,0.32
					c0.01,0.01,0.02,0.03,0.03,0.04c0.11-0.03,0.22-0.06,0.34-0.08c0.63-0.15,1.26-0.32,1.9-0.43c0.43-0.08,0.87-0.08,1.3-0.1
					c0.28-0.01,0.56,0,0.83,0c0.17,0,0.24-0.12,0.19-0.28c-0.01-0.05,0-0.12,0.03-0.16c0.02-0.02,0.09-0.03,0.13-0.01
					c0.36,0.12,0.71,0.26,1.08,0.36c0.28,0.08,0.57,0.11,0.86,0.16c0.04,0.01,0.09-0.01,0.15-0.01c-0.24-0.57-0.47-1.13-0.71-1.71
					c0.09,0,0.15-0.01,0.21-0.01c0.83-0.01,1.67-0.03,2.5-0.04c0.18,0,0.35,0,0.52-0.03c0.13-0.02,0.27-0.06,0.39-0.14
					c0.54-0.35,1.1-0.41,1.67-0.09c0.57,0.32,0.84,0.83,0.8,1.48c-0.05,0.72-0.63,1.31-1.36,1.4c-0.45,0.05-0.84-0.08-1.2-0.36
					c-0.1-0.08-0.23-0.15-0.34-0.15c-0.56-0.02-1.12-0.01-1.68-0.02c-0.17,0-0.35-0.01-0.54-0.02c0.03,0.12,0.05,0.21,0.07,0.3
					c0.04,0.17,0.03,0.21-0.15,0.2c-0.36-0.03-0.72-0.04-1.07-0.12c-0.9-0.2-1.81-0.16-2.72-0.12c-0.86,0.03-1.66,0.34-2.49,0.5
					c-0.37,0.07-0.75,0.1-1.12,0.12c-0.16,0.01-0.26,0.05-0.35,0.18c-0.16,0.23-0.35,0.46-0.55,0.67c0.02-0.2,0.03-0.41,0.04-0.61
					c-0.35,0.03-0.68,0.07-1.01,0.08c-0.35,0.01-0.71,0.03-1.05-0.02c-0.85-0.11-1.7-0.24-2.54-0.4c-0.54-0.1-1.06-0.26-1.59-0.42
					c-0.44-0.13-0.86-0.16-1.3-0.03c-0.09,0.03-0.19,0.05-0.28,0.07c-0.33,0.08-0.36,0.14-0.34,0.48c0.03,0.42,0.2,0.78,0.5,1.06
					c0.29,0.27,0.59,0.53,0.9,0.77c0.3,0.23,0.67,0.31,1.04,0.34c0.72,0.07,1.44,0.1,2.16,0.15c0.02,0,0.04-0.01,0.09-0.01
					c-0.02-0.06-0.03-0.12-0.06-0.17c-0.19-0.41-0.49-0.7-0.88-0.91c-0.21-0.11-0.43-0.21-0.64-0.32c-0.18-0.09-0.34-0.2-0.44-0.41
					c0.27-0.04,0.52,0.01,0.76,0.09c0.49,0.16,0.89,0.47,1.27,0.8c0.94,0.82,2.05,1.2,3.26,1.34c0.75,0.09,1.5,0.14,2.25,0.21
					c0.07,0.01,0.13,0.02,0.2,0.03c0.15,0.02,0.22,0.16,0.13,0.29c-0.16,0.24-0.4,0.36-0.67,0.34c-0.45-0.03-0.9-0.1-1.34-0.18
					c-0.77-0.13-1.54-0.31-2.32-0.41c-0.76-0.1-1.52-0.15-2.28-0.18c-0.5-0.02-0.99,0.05-1.46,0.26c-0.23,0.1-0.43,0.25-0.59,0.45
					c-0.04,0.05-0.1,0.08-0.16,0.11c-0.16,0.08-0.32,0.14-0.47,0.22c-0.19,0.1-0.38,0.19-0.65,0.17c0.34-0.35,0.66-0.69,0.99-1.03
					c-0.21-0.19-0.45-0.27-0.72-0.29c-0.61-0.04-1.18,0.17-1.75,0.36c-0.29,0.1-0.59,0.2-0.91,0.3c0.07-0.35,0.42-0.46,0.55-0.74
					c-0.45-0.24-0.88-0.48-1.34-0.74c0.17-0.13,0.33-0.1,0.48-0.06c0.4,0.09,0.79,0.2,1.18,0.3c0.57,0.13,1.14,0.17,1.76,0.08
					c-0.05-0.13-0.07-0.26-0.14-0.36c-0.21-0.32-0.44-0.61-0.66-0.93c-0.17-0.25-0.33-0.5-0.46-0.77c-0.32-0.65-0.75-1.19-1.4-1.52
					c-0.13-0.07-0.23-0.07-0.36,0c-0.32,0.16-0.58,0.37-0.74,0.7c-0.02,0.04-0.1,0.06-0.15,0.09c-0.01-0.05-0.04-0.11-0.04-0.15
					c0.04-0.26,0.17-0.46,0.34-0.65c0.17-0.19,0.35-0.39,0.53-0.58c0.13-0.14,0.16-0.3,0.07-0.47c-0.13-0.27-0.27-0.53-0.41-0.8
					c-0.16-0.3-0.34-0.6-0.5-0.9c-0.06-0.12-0.09-0.25-0.13-0.38c0.02-0.01,0.03-0.02,0.05-0.03c0.12,0.13,0.26,0.25,0.35,0.39
					c0.29,0.46,0.65,0.85,1.03,1.24c0.09,0.09,0.17,0.11,0.3,0.09c0.43-0.08,0.7-0.35,0.89-0.72c0.11-0.22,0.24-0.4,0.47-0.53
					c-0.06,0.3-0.12,0.59-0.17,0.87c-0.01,0.05,0.01,0.13,0.04,0.16c0.17,0.15,0.35,0.31,0.54,0.44c0.28,0.19,0.57,0.18,0.86-0.01
					c0.18-0.12,0.35-0.25,0.54-0.35c0.11-0.06,0.23-0.1,0.35-0.15c0.01,0.02,0.03,0.03,0.04,0.05c-0.1,0.16-0.2,0.32-0.31,0.48
					c-0.05,0.08-0.11,0.14-0.16,0.22c-0.25,0.36-0.24,0.6,0.08,0.92c0.37,0.38,0.85,0.56,1.35,0.72c0.7,0.22,1.42,0.34,2.14,0.41
					c0.43,0.04,0.87,0.08,1.3,0.09c0.37,0.01,0.75-0.05,1.12-0.04c0.23,0,0.46,0.07,0.73,0.11c0.1-0.23,0.23-0.5,0.37-0.81
					c-0.19-0.03-0.35-0.06-0.51-0.07c-0.4-0.02-0.79-0.01-1.19-0.04c-0.35-0.03-0.69-0.1-1.03-0.17c-0.22-0.05-0.39-0.19-0.51-0.43
					c0.84,0.03,1.66,0.06,2.5,0.08c-0.1-0.4-0.43-0.71-0.31-1.15c0.19,0.02,0.36,0.11,0.44,0.28c0.26,0.62,0.78,0.64,1.31,0.56
					c0.63-0.1,1.26-0.24,1.89-0.39C208.39,24.98,208.71,24.96,209.01,25.14L209.01,25.14z M195.98,24.92
					c-0.12,0.03-0.26,0.06-0.39,0.1c-0.04,0.01-0.1,0.05-0.11,0.09c-0.13,0.4-0.14,0.72,0.26,0.92c0.27,0.13,0.56,0.25,0.85,0.33
					c0.33,0.1,0.63,0.02,0.92-0.17c0.12-0.08,0.15-0.16,0.08-0.29C197.23,25.3,196.67,25.02,195.98,24.92"/>
				<path style="clip-path:url(#SVGID_00000179613698865598637540000003004712821667815829_);fill:#1E589E;" d="M208.15,30.41
					c-0.04,0.04-0.1,0.07-0.13,0.12c-0.16,0.21-0.31,0.43-0.48,0.64c-0.03-0.29-0.11-0.57,0.05-0.85c0.13-0.24,0.24-0.49,0.36-0.73
					c0.03-0.05,0.05-0.11,0.09-0.2c-0.92,0.06-1.77,0.44-2.7,0.34c0.17-0.21,0.38-0.3,0.6-0.38c0.18-0.06,0.36-0.11,0.53-0.17
					c0.12-0.05,0.23-0.13,0.37-0.2c-0.19-0.27-0.36-0.52-0.54-0.78c0.02-0.02,0.04-0.05,0.05-0.07c0.34,0.14,0.68,0.26,1,0.42
					c0.6,0.3,1.19,0.17,1.81,0.01c-0.1-0.31-0.2-0.61-0.32-0.96c0.09,0.05,0.13,0.07,0.18,0.1c0.2,0.11,0.39,0.23,0.59,0.34
					c0.34,0.21,0.67,0.22,1.04,0.01c0.66-0.37,1.39-0.48,2.12-0.62c0.12-0.02,0.25-0.03,0.37-0.03c0.39,0,0.53,0.11,0.63,0.5
					c0.05,0,0.11,0.01,0.17,0.01c1.63,0,3.27,0,4.9,0c0.16,0,0.2-0.05,0.2-0.2c0-2.13,0-4.26,0-6.39c0-0.12,0-0.25-0.01-0.37
					c-0.01-0.11,0.04-0.15,0.15-0.14c0.35,0.01,0.7,0,1.05,0c0.91,0,1.81,0,2.72-0.01c0.14,0,0.22,0.05,0.28,0.16
					c0.24,0.46,0.35,0.95,0.45,1.45c0.03,0.15,0.06,0.31,0.09,0.49c-0.16,0-0.31,0-0.45,0c-0.74,0.01-1.48,0.02-2.23,0.03
					c-0.3,0-0.3,0-0.3,0.31c0,2.19,0,4.38,0,6.56v0.24c-0.15,0-0.29,0-0.42,0c-2.67,0-5.34,0-8.01,0c-0.03,0-0.06,0.01-0.08,0
					c-0.17-0.04-0.29-0.02-0.27,0.2c0,0.04-0.07,0.12-0.12,0.13c-0.19,0.06-0.39,0.11-0.59,0.14c-0.16,0.02-0.33,0.01-0.49,0
					c-0.67-0.04-1.32,0.07-1.96,0.22c-0.19,0.05-0.39,0.05-0.6,0.07C208.2,30.66,208.17,30.53,208.15,30.41
					c0.13-0.07,0.26-0.16,0.4-0.21c0.64-0.25,1.32-0.34,2.01-0.37c0.39-0.02,0.78,0,1.18,0c0.1-0.66,0.44-1.11,1.02-1.41
					c-0.36-0.13-0.68-0.11-0.99-0.06c-0.92,0.14-1.76,0.48-2.55,0.97c-0.38,0.24-0.74,0.51-0.99,0.89
					C208.18,30.27,208.17,30.35,208.15,30.41"/>
				<path style="clip-path:url(#SVGID_00000179613698865598637540000003004712821667815829_);fill:#1E589E;" d="M209.01,25.14
					c-0.11-0.28-0.22-0.57-0.34-0.88c-0.5,0.3-0.96,0.42-1.34-0.16c-0.18,0.16-0.33,0.31-0.49,0.45c-0.18-0.11-0.22-0.28-0.11-0.44
					c0.21-0.3,0.39-0.62,0.48-0.98c0.07-0.28,0-0.41-0.28-0.51c-0.24-0.09-0.48-0.17-0.71-0.26c-0.03-0.01-0.05-0.03-0.13-0.08
					c0.2-0.07,0.35-0.14,0.52-0.18c0.15-0.04,0.3-0.06,0.45-0.06c0.17-0.01,0.28-0.08,0.37-0.22c0.09-0.14,0.21-0.27,0.31-0.41
					c0.3-0.43,0.74-0.6,1.23-0.59c0.85,0.02,1.66-0.2,2.48-0.36c0.29-0.05,0.58-0.06,0.91-0.09c-0.05,0.14-0.08,0.24-0.12,0.36h3.7
					c0-0.05,0.01-0.11,0.01-0.16c0-1.54,0-3.08-0.01-4.63c0-0.08-0.05-0.19-0.1-0.25c-0.42-0.45-0.58-0.97-0.4-1.56
					c0.18-0.59,0.59-0.95,1.19-1.07c0.97-0.2,1.9,0.62,1.81,1.61c-0.03,0.38-0.18,0.72-0.46,1c-0.05,0.05-0.07,0.14-0.07,0.21
					c0,1.07,0,2.13,0,3.2v3.61v0.22h-6.37c0.01,0.11,0.02,0.2,0.04,0.28c0.03,0.12,0,0.19-0.11,0.25c-0.71,0.43-1.47,0.66-2.31,0.57
					c-0.01,0-0.02,0.01-0.05,0.02c0.1,0.44,0.2,0.89,0.32,1.39C209.27,25.3,209.14,25.22,209.01,25.14
					C209.01,25.14,209.01,25.14,209.01,25.14 M211.92,21.07c-0.81,0.03-1.46,0.31-1.98,0.86c-0.42,0.44-0.69,0.96-0.8,1.59
					c0.08-0.02,0.12-0.03,0.16-0.05c0.61-0.24,1.23-0.49,1.84-0.72c0.13-0.05,0.17-0.11,0.17-0.25c0.01-0.38,0.06-0.75,0.36-1.04
					C211.77,21.37,211.83,21.22,211.92,21.07 M209.3,21.7c0-0.27-0.11-0.37-0.41-0.36c-0.43,0.02-0.88,0.37-1,0.79
					c-0.06,0.19-0.04,0.38,0.03,0.56c0.06,0.16,0.18,0.2,0.32,0.18C208.77,22.83,209.3,22.23,209.3,21.7"/>
				<path style="clip-path:url(#SVGID_00000179613698865598637540000003004712821667815829_);fill:#1E589E;" d="M218.22,38.5
					c-0.2,0.18-0.39,0.36-0.59,0.53c-0.65,0.56-1.36,1.03-2.14,1.41c-0.22,0.11-0.45,0.16-0.7,0.16c-2.23-0.01-4.47,0-6.7-0.01
					c-0.27,0-0.54-0.01-0.81-0.02c-0.06,0-0.12,0.01-0.22,0.01c0.09,0.19,0.17,0.36,0.26,0.55c-0.42,0.04-0.82,0.02-1.2-0.12
					c-0.5-0.18-0.98-0.4-1.48-0.59c-0.3-0.11-0.6-0.25-0.91-0.29c-0.39-0.05-0.58,0.22-0.47,0.6c0.06,0.21,0.12,0.43,0.18,0.65
					l-0.06,0.04c-0.11-0.09-0.23-0.17-0.32-0.28c-0.09-0.1-0.16-0.22-0.22-0.34c-0.26-0.54-0.68-0.94-1.16-1.28
					c-0.4-0.28-0.85-0.39-1.35-0.35c-0.42,0.03-0.84,0.05-1.24-0.13c-0.07-0.03-0.14-0.07-0.25-0.12c0.26-0.12,0.5-0.15,0.74-0.13
					c0.36,0.03,0.71,0.02,1.07-0.13c-0.07-0.12-0.11-0.23-0.19-0.32c-0.43-0.48-0.85-0.97-1.3-1.44c-0.28-0.3-0.66-0.45-1.05-0.56
					c-0.22-0.06-0.43-0.16-0.64-0.24c0-0.02,0-0.04,0.01-0.06c0.17-0.07,0.35-0.14,0.52-0.2c0-0.02,0.01-0.03,0-0.04
					c-0.37-0.43-0.72-0.9-1.22-1.19c-0.21-0.12-0.27-0.29-0.38-0.49c0.53,0.03,0.94,0.27,1.32,0.58c0.62,0.5,1.12,1.12,1.66,1.7
					c0.33,0.35,0.67,0.7,1.03,1.01c0.17,0.15,0.41,0.22,0.62,0.33c0.11,0.05,0.18,0,0.2-0.11c0.06-0.26,0.11-0.53,0.15-0.8
					c0.05-0.34,0.08-0.69,0.24-1c0.04-0.07,0.09-0.14,0.14-0.2c0.02,0,0.04,0.01,0.07,0.01c0,0.23,0.02,0.47,0,0.7
					c-0.03,0.33-0.02,0.65,0.13,0.94c0.03,0.07,0.12,0.14,0.19,0.16c0.26,0.05,0.47,0.16,0.66,0.34c0.21,0.2,0.45,0.39,0.68,0.56
					c0.24,0.17,0.35,0.13,0.57-0.06c0.23-0.2,0.48-0.37,0.73-0.55c0.05-0.03,0.11-0.05,0.19-0.08c-0.04,0.32-0.14,0.59-0.37,0.79
					c-0.07,0.06-0.16,0.11-0.23,0.17c-0.08,0.06-0.16,0.11-0.22,0.18c-0.27,0.27-0.27,0.42,0.03,0.67c0.36,0.3,0.79,0.46,1.23,0.59
					c0.39,0.12,0.79,0.2,1.18,0.31c0.09,0.02,0.18,0.06,0.29,0.09c-0.03-0.05-0.05-0.08-0.08-0.11c-0.56-0.73-0.98-1.53-1.18-2.42
					c-0.15-0.71-0.04-1.4,0.45-1.98c0.26-0.31,0.66-0.45,1.06-0.39c0.01,0.3,0.03,0.59,0.04,0.89c0.02,0.62,0.03,1.23,0.03,1.85
					c0,0.11,0.04,0.16,0.15,0.15c0.06,0,0.12,0,0.19,0c2.51,0,5.02,0,7.53,0c0.96,0,1.91-0.01,2.87-0.02c0.06,0,0.12,0,0.19,0
					L218.22,38.5z M203.25,39.23c0.01,0,0.01,0,0.02-0.01c-0.03-0.12-0.05-0.25-0.1-0.35c-0.24-0.46-0.64-0.72-1.14-0.83
					c-0.19-0.04-0.39-0.02-0.51,0.17c-0.13,0.19-0.1,0.39,0.02,0.56c0.34,0.5,0.82,0.78,1.42,0.85c0.18,0.02,0.26-0.08,0.28-0.24
					C203.25,39.34,203.25,39.28,203.25,39.23"/>
				<path style="clip-path:url(#SVGID_00000179613698865598637540000003004712821667815829_);fill:#1E589E;" d="M199.7,22.5
					c0.23-0.11,0.45-0.22,0.68-0.32c0.35-0.16,0.71-0.31,1.05-0.47c0.15-0.07,0.28-0.19,0.46-0.32c-0.22-0.09-0.38-0.19-0.56-0.24
					c-0.78-0.23-1.57-0.3-2.38-0.18c-0.33,0.05-0.62,0.21-0.89,0.39c-0.31,0.2-0.63,0.41-1.01,0.48c-0.07,0.01-0.15,0.02-0.23,0.02
					c-0.01-0.01-0.01-0.03-0.02-0.04c0.11-0.11,0.22-0.22,0.34-0.32c0.26-0.24,0.53-0.47,0.79-0.72c0.13-0.12,0.15-0.24,0.05-0.41
					c-0.12-0.2-0.21-0.43-0.33-0.69c0.16,0.08,0.29,0.14,0.4,0.21c0.61,0.37,1.28,0.49,1.97,0.55c0.65,0.06,1.3,0.17,1.95,0.25
					c0.73,0.09,1.46,0.21,2.19,0.24c0.89,0.03,1.75-0.21,2.57-0.54c0.65-0.26,1.28-0.57,1.92-0.86c0.04-0.02,0.07-0.04,0.11-0.06
					c-0.05-0.39-0.41-0.69-0.31-1.17c0.14,0.12,0.29,0.2,0.37,0.33c0.18,0.28,0.44,0.4,0.75,0.44c0.83,0.1,1.67,0.13,2.51,0.1
					c0.08,0,0.17-0.02,0.27-0.03c-0.14-0.55-0.27-1.08-0.41-1.62c-0.01-0.04-0.06-0.08-0.1-0.08c-1.21-0.01-2.44-0.1-3.62,0.28
					c-0.92,0.29-1.78,0.7-2.5,1.36c-0.18,0.17-0.35,0.36-0.54,0.52c-0.15,0.12-0.32,0.21-0.48,0.32c-0.02-0.02-0.04-0.03-0.05-0.05
					c0.04-0.09,0.08-0.19,0.13-0.28c0.27-0.52,0.68-0.92,1.12-1.29c0.26-0.22,0.53-0.44,0.81-0.65c0.1-0.08,0.11-0.15,0.09-0.26
					c-0.03-0.12-0.05-0.24-0.08-0.4c0.23,0.02,0.43,0.03,0.63,0.06c0.52,0.08,1.04,0.02,1.55-0.09c0.73-0.15,1.46-0.21,2.21-0.18
					c0.15,0.01,0.31,0.01,0.46,0.04c0.06,0.01,0.11,0.07,0.16,0.12c0.01,0.01,0.01,0.02,0.01,0.03c0.15,0.41,0.15,0.41,0.59,0.41
					c0.89,0,1.78,0.01,2.67,0.01c0.04,0,0.09,0,0.14,0.01v2.02c-0.09,0-0.15,0-0.22,0c-0.76,0-1.52,0.01-2.28,0
					c-0.15,0-0.21,0.04-0.2,0.19c0.01,0.11,0,0.21,0,0.36c-0.27,0-0.53,0-0.78,0c-0.51,0-1.02-0.01-1.53-0.01
					c-0.47,0-0.93,0.12-1.37,0.3c-0.8,0.33-1.6,0.65-2.4,0.98c-0.63,0.26-1.29,0.38-1.97,0.36c-0.96-0.03-1.85,0.17-2.69,0.62
					c-0.43,0.23-0.89,0.37-1.37,0.4c-0.2,0.01-0.4-0.02-0.6-0.03C199.72,22.54,199.71,22.52,199.7,22.5"/>
				<path style="clip-path:url(#SVGID_00000179613698865598637540000003004712821667815829_);fill:#1E589E;" d="M201.07,30.85
					c0.27-0.01,0.49,0.04,0.66,0.21c0.35,0.36,0.78,0.56,1.28,0.65c0.45,0.08,0.85,0.27,1.17,0.61c0.29,0.3,0.67,0.43,1.07,0.47
					c0.65,0.07,1.3,0.1,1.94,0.14c1,0.06,2,0.1,3,0.17c0.46,0.03,0.91,0.11,1.36,0.18c0.1,0.02,0.25,0.09,0.28,0.16
					c0.05,0.17,0,0.36-0.17,0.46c-0.13,0.07-0.29,0.12-0.45,0.13c-0.55,0.04-1.07-0.12-1.61-0.21c-0.43-0.07-0.86-0.12-1.29-0.16
					c-0.6-0.05-1.21-0.1-1.81-0.12c-0.59-0.03-1.18-0.03-1.77-0.04c-0.08,0-0.16,0.04-0.23,0.09c-0.11,0.07-0.2,0.16-0.3,0.25
					c-0.44,0.45-0.47,0.64-0.15,1.18c0.19,0.32,0.41,0.63,0.48,1c0.01,0.04,0.01,0.08,0.02,0.16c-0.28-0.15-0.5-0.33-0.66-0.56
					c-0.18-0.25-0.34-0.53-0.54-0.76c-0.51-0.58-1.14-0.79-1.89-0.54c-0.19,0.06-0.38,0.13-0.58,0.2c-0.39,0.13-0.79,0.12-1.1-0.03
					c0.1-0.2,0.28-0.25,0.47-0.28c0.28-0.04,0.52-0.14,0.74-0.32c0.05-0.04,0.09-0.11,0.1-0.16c0.05-0.4-0.16-0.78-0.55-0.89
					c-0.34-0.1-0.71-0.12-1.07-0.18c-0.23-0.04-0.47-0.08-0.7-0.13c-0.09-0.02-0.18-0.08-0.27-0.13c0-0.02,0-0.03,0.01-0.05
					c0.16-0.03,0.33-0.08,0.49-0.07c0.49,0.02,0.98,0.06,1.47,0.08c0.25,0.01,0.51,0.01,0.76,0.01c0.05,0,0.11-0.05,0.14-0.1
					c0.1-0.14,0.18-0.29,0.27-0.43c0.05-0.08,0.04-0.14-0.01-0.21C201.45,31.38,201.27,31.13,201.07,30.85 M202.77,32.3
					c-0.57-0.05-1.02,0.49-0.96,1.05c0.01,0.05,0.03,0.12,0.07,0.14c0.42,0.2,0.86,0.35,1.34,0.24c0.35-0.08,0.6-0.36,0.61-0.66
					c0.01-0.31-0.2-0.57-0.56-0.67C203.1,32.35,202.93,32.33,202.77,32.3"/>
				<path style="clip-path:url(#SVGID_00000179613698865598637540000003004712821667815829_);fill:#1E589E;" d="M212.02,31.66
					c-0.16,0.34-0.48,0.29-0.75,0.32c-0.63,0.08-1.26,0.15-1.89,0.19c-0.78,0.05-1.57,0.14-2.35,0.01
					c-0.08-0.01-0.16-0.04-0.27-0.07c0.22-0.16,0.45-0.23,0.68-0.25c0.45-0.04,0.9-0.07,1.35-0.1c0.37-0.03,0.74-0.08,1.06-0.3
					c0.03-0.02,0.06-0.04,0.09-0.04c0.47,0.03,0.9-0.15,1.35-0.24c0.09-0.02,0.19-0.03,0.28-0.04c0.18-0.03,0.32,0.01,0.37,0.22
					c0.01,0.05,0.11,0.12,0.17,0.12c0.63,0,1.26,0,1.88-0.02c0.09,0,0.2-0.06,0.28-0.13c0.9-0.8,2.28-0.39,2.57,0.77
					c0.24,0.98-0.53,1.93-1.54,1.9c-0.29-0.01-0.57-0.07-0.8-0.24c-0.22-0.16-0.47-0.2-0.72-0.2c-0.41-0.01-0.83,0.01-1.24,0.03
					c-0.15,0.01-0.24-0.01-0.27-0.2c-0.06-0.52-0.15-1.03-0.23-1.54C212.04,31.78,212.03,31.72,212.02,31.66"/>
				<path style="clip-path:url(#SVGID_00000179613698865598637540000003004712821667815829_);fill:#1E589E;" d="M202.97,22.96
					c-0.59-0.01-1.14,0.12-1.7-0.05c0.09-0.07,0.17-0.15,0.27-0.21c0.45-0.27,0.95-0.32,1.46-0.29c1.19,0.09,2.31,0.46,3.38,0.97
					c0.34,0.16,0.35,0.19,0.32,0.57c-0.01,0.01-0.02,0.02-0.03,0.02c-0.66-0.04-1.33,0-1.93-0.35c-0.27-0.16-0.56-0.18-0.83-0.05
					c-0.5,0.24-0.99,0.5-1.48,0.76c-0.63,0.34-1.26,0.69-1.89,1.03c-0.1,0.05-0.21,0.07-0.32,0.1c-0.01-0.02-0.03-0.03-0.04-0.05
					c0.12-0.15,0.23-0.31,0.38-0.43c0.52-0.42,1.05-0.81,1.57-1.22c0.24-0.19,0.46-0.4,0.69-0.61
					C202.86,23.11,202.9,23.05,202.97,22.96"/>
				<path style="clip-path:url(#SVGID_00000179613698865598637540000003004712821667815829_);fill:#D21E47;" d="M219.03,19.34
					c0-0.22,0-0.4,0-0.59c0-0.42,0-0.85,0-1.27c0-0.11,0.02-0.15,0.14-0.15c0.71,0.01,1.43,0.01,2.14,0.01
					c0.11,0,0.19,0.04,0.26,0.12c0.48,0.55,0.66,1.17,0.46,1.88H219.03z"/>
				
					<rect x="221.87" y="24.39" style="clip-path:url(#SVGID_00000179613698865598637540000003004712821667815829_);fill:#D21E47;" width="1.76" height="2.17"/>
				<path style="clip-path:url(#SVGID_00000179613698865598637540000003004712821667815829_);fill:#1E589E;" d="M204.64,41.25
					c0.41,0.06,0.8,0.13,1.19,0.18c0.43,0.05,0.86,0.09,1.3,0.13c0.12,0.01,0.24,0.02,0.35,0.05c0.25,0.07,0.4,0.32,0.33,0.57
					c-0.02,0.05-0.14,0.12-0.21,0.11c-0.44-0.04-0.89-0.06-1.32-0.16c-0.4-0.09-0.78-0.26-1.16-0.42
					C204.92,41.63,204.74,41.49,204.64,41.25"/>
				<path style="clip-path:url(#SVGID_00000179613698865598637540000003004712821667815829_);fill:#D21E47;" d="M217.98,38.43
					c-0.96,0.01-1.92,0.02-2.87,0.02c-2.51,0-5.02,0-7.53,0c-0.06,0-0.12,0-0.19,0c-0.33,0.05-0.58,1.68-0.32,2.13
					c0.1,0,0.16-0.01,0.22-0.01c0.27,0.01,0.54,0.02,0.81,0.02c2.23,0,4.47,0,6.7,0.01c0.25,0,0.48-0.05,0.7-0.16
					c0.77-0.38,1.48-0.85,2.14-1.41c0.2-0.17,0.39-0.35,0.59-0.53c-0.02-0.02-0.04-0.04-0.05-0.07
					C218.11,38.43,218.04,38.43,217.98,38.43"/>
				<path style="clip-path:url(#SVGID_00000179613698865598637540000003004712821667815829_);fill:#D21E47;" d="M223.6,28.27
					c0-0.05-0.01-0.11-0.01-0.17h-1.71v0.21c0,0.99,0,1.98,0,2.98c0,0.17-0.05,0.21-0.21,0.21c-1.26-0.01-2.52,0-3.77,0
					c-0.07,0-0.13,0-0.21,0c0,0.08,0,0.13,0,0.18c-0.01,1.07-0.02,2.14-0.03,3.21c0,0.11-0.01,0.18-0.15,0.18
					c-2.05,0.01-4.1,0.02-6.15,0.03c-0.57,0-1.05-0.26-1.52-0.59c-0.32-0.05-0.73-0.05-1.02,0.04c-0.04,0.02-0.09,0.05-0.13,0.07
					c-0.06,0.03-0.11,0.06-0.16,0.09c-0.06,0.05-0.14,0.12-0.23,0.18c-0.36,0.34-0.55,0.84-0.46,1.33c0.07,0.44,0.33,0.76,0.67,1.03
					c0.55,0.43,1.37,0.42,1.78-0.01c0.05-0.05,0.15-0.07,0.23-0.07c0.45-0.01,0.91-0.01,1.36-0.01c2.5,0,5,0,7.5,0
					c0.07,0,0.13,0,0.21,0c0-1.18-0.06-2.34,0.01-3.5c0.09,0,0.15,0,0.22,0c0.77,0,1.53,0,2.3,0c0.11,0,0.17-0.04,0.23-0.13
					c0.4-0.67,0.72-1.37,0.95-2.12c0.21-0.69,0.35-1.39,0.31-2.12C223.59,28.95,223.6,28.61,223.6,28.27"/>
				<path style="clip-path:url(#SVGID_00000179613698865598637540000003004712821667815829_);fill:#D21E47;" d="M216.85,32.1
					c-0.29-1.16-1.67-1.58-2.57-0.77c-0.07,0.07-0.18,0.13-0.28,0.13c-0.63,0.02-1.26,0.02-1.88,0.02c-0.02,0-0.03,0-0.05-0.01
					c-0.04,0.12-0.05,0.2-0.05,0.2c0.01,0.06,0.03,0.12,0.04,0.18c0.08,0.51,0.17,1.02,0.23,1.54c0.02,0.19,0.11,0.21,0.27,0.2
					c0.41-0.02,0.83-0.03,1.24-0.03c0.25,0,0.5,0.03,0.72,0.2c0.23,0.17,0.51,0.24,0.8,0.24C216.32,34.03,217.09,33.08,216.85,32.1"
					/>
				<path style="clip-path:url(#SVGID_00000179613698865598637540000003004712821667815829_);fill:#D21E47;" d="M223.67,22.42
					c-0.1-0.5-0.21-1-0.45-1.45c-0.06-0.12-0.14-0.16-0.28-0.16c-0.91,0.01-1.81,0.01-2.72,0.01c-0.35,0-0.7,0-1.05,0
					c-0.11,0-0.16,0.03-0.15,0.14c0.01,0.12,0.01,0.25,0.01,0.37c0,2.13,0,4.26,0,6.39c0,0.15-0.04,0.2-0.2,0.2
					c-1.63-0.01-3.27,0-4.9,0c-0.06,0-0.12-0.01-0.17-0.01c-0.62,0-0.63,0.43-1,0.5c-0.59,0.3-0.92,0.75-1.02,1.41
					c0.23,0.06,0.53,0.2,0.54,0.22c0.02,0,0.05,0,0.07,0c2.67,0,5.34,0,8.01,0c0.13,0,0.27,0,0.42,0v-0.24c0-2.19,0-4.38,0-6.56
					c0-0.3,0-0.3,0.3-0.31c0.74-0.01,1.48-0.02,2.23-0.03c0.15,0,0.29,0,0.45,0C223.73,22.73,223.7,22.57,223.67,22.42"/>
				<path style="clip-path:url(#SVGID_00000179613698865598637540000003004712821667815829_);fill:#D21E47;" d="M217.53,24.14
					c-0.57-0.31-1.13-0.26-1.67,0.09c-0.11,0.07-0.25,0.12-0.39,0.14c-0.17,0.03-0.35,0.03-0.52,0.03c-0.83,0.02-1.67,0.03-2.5,0.04
					c-0.06,0-0.13,0.01-0.21,0.01c0.24,0.58,0.47,1.14,0.71,1.71c0.1,0.12,0.25,0.31,0.25,0.31c0.19,0.01,0.37,0.02,0.54,0.02
					c0.56,0.01,1.12,0,1.68,0.02c0.12,0,0.25,0.07,0.34,0.15c0.36,0.28,0.74,0.41,1.2,0.36c0.73-0.09,1.32-0.68,1.36-1.4
					C218.37,24.97,218.11,24.46,217.53,24.14"/>
				<path style="clip-path:url(#SVGID_00000179613698865598637540000003004712821667815829_);fill:#D21E47;" d="M216.65,13.06
					c-0.6,0.12-1.01,0.48-1.19,1.07c-0.18,0.59-0.03,1.11,0.4,1.56c0.06,0.06,0.1,0.16,0.1,0.25c0.01,1.54,0.01,3.08,0.01,4.63
					c0,0.05-0.01,0.11-0.01,0.16h-3.7c-0.17,0.1-0.25,0.21-0.33,0.34c0,0,0,0,0,0c-0.1,0.15-0.15,0.3-0.25,0.39
					c-0.29,0.29-0.35,0.65-0.36,1.02c0.04,0.25,0.09,0.38,0.24,0.41h6.37v-0.22v-3.61c0-1.07,0-2.13,0-3.2
					c0-0.07,0.03-0.16,0.07-0.21c0.28-0.28,0.43-0.62,0.46-1C218.55,13.68,217.62,12.86,216.65,13.06"/>
				<path style="clip-path:url(#SVGID_00000179613698865598637540000003004712821667815829_);fill:#D21E47;" d="M209.03,12.21
					C209.03,12.21,209.03,12.2,209.03,12.21"/>
				<path style="clip-path:url(#SVGID_00000179613698865598637540000003004712821667815829_);fill:#D21E47;" d="M209.04,12.22
					c0-0.01-0.01-0.01-0.01-0.01C209.03,12.21,209.04,12.22,209.04,12.22"/>
				<path style="clip-path:url(#SVGID_00000179613698865598637540000003004712821667815829_);fill:#D21E47;" d="M215.17,11.89
					c0-0.08-0.01-0.14-0.05-0.2c0,0-0.01-0.01-0.01-0.01c-0.01-0.02-0.03-0.03-0.05-0.04c-0.02-0.01-0.03-0.02-0.06-0.04
					c-0.44-0.22-0.86-0.48-1.32-0.65c-0.22-0.08-0.44-0.16-0.66-0.24c-1.55-0.51-3.16-0.78-4.8-0.83c-0.06,0-0.12,0-0.17,0
					c-0.06,0-0.12,0-0.17,0c-0.23,0-0.46,0.01-0.69,0.03c-0.12,0.01-0.23,0.01-0.35,0.02c-0.08,0-0.16,0.02-0.23,0.03
					c-0.04,0.01-0.08,0.02-0.11,0.02c-0.06,0.01-0.12,0.03-0.18,0.04c-0.02,0-0.03,0.01-0.05,0.01c0,0.01,0,0.01,0,0.02
					c0,0.01,0,0.02-0.01,0.03c0.6,0.36,1.21,0.72,1.77,1.17c0.17,0.14,0.34,0.29,0.51,0.45c0.16,0.13,0.32,0.06,0.51,0.51
					c1.4,0.02,2.78,0.04,4.17,0.06c0,0.14,0,0.28,0,0.41c0,0.04,0,0.09,0,0.13c-0.01,0.19-0.02,0.37-0.02,0.56
					c0,0.06,0,0.11-0.01,0.17c0,0.01,0,0.02,0,0.03c0,0,0,0.01,0,0.01c-0.01,0.05-0.03,0.08-0.07,0.09
					c-0.02,0.01-0.04,0.01-0.07,0.01c-0.54,0-1.08,0.01-1.62,0.02c-0.32,0-0.64,0.01-0.97,0.01c-0.06,0-0.13-0.03-0.18-0.07
					c0,0,0,0,0,0c0.06,0.07,0.1,0.16,0.14,0.25c0.04,0.1,0.09,0.2,0.16,0.29c0.07,0.09,0.13,0.19,0.17,0.31
					c0.11,0.27,0.19,0.55,0.27,0.84c0.02,0.05,0.16,0.37,0.26,0.44c0,0,0,0,0,0h3.85c0-0.03,0-0.06,0.01-0.09c0-0.01,0-0.03,0-0.04
					c0-0.01,0-0.03,0-0.04C215.15,14.37,215.16,13.13,215.17,11.89"/>
				<path style="clip-path:url(#SVGID_00000179613698865598637540000003004712821667815829_);fill:#D21E47;" d="M215.01,17.37
					c-0.89,0-1.78-0.01-2.67-0.01c-0.26,0-0.37,0-0.44-0.09c0.1,0.18,0.07,0.25,0.07,0.25c0.12,0.45,0.29,1.15,0.4,1.61
					c0.07,0.13,0.11,0.24,0.11,0.32c0.03-0.04,0.09-0.05,0.17-0.05c0.76,0.01,1.52,0,2.28,0c0.07,0,0.13,0,0.22,0v-2.02
					C215.1,17.38,215.05,17.37,215.01,17.37"/>
			</g>
		</g>
	</g>
</g>
</svg>
