<?xml version="1.0" encoding="iso-8859-1"?>
<!-- Generator: Adobe Illustrator 18.0.0, SVG Export Plug-In . SVG Version: 6.00 Build 0)  -->
<!DOCTYPE svg PUBLIC "-//W3C//DTD SVG 1.1//EN" "http://www.w3.org/Graphics/SVG/1.1/DTD/svg11.dtd">
<svg version="1.1" id="Capa_1" xmlns="http://www.w3.org/2000/svg" xmlns:xlink="http://www.w3.org/1999/xlink" x="0px" y="0px"
	 viewBox="0 0 255 255" style="enable-background:new 0 0 255 255;" xml:space="preserve">
<path d="M127.5,0C57.196,0,0,57.196,0,127.5S57.196,255,127.5,255S255,197.804,255,127.5S197.804,0,127.5,0z M127.5,240
	C65.467,240,15,189.533,15,127.5S65.467,15,127.5,15S240,65.467,240,127.5S189.533,240,127.5,240z M127.5,104.271
	c-11.696,0-21.211,9.516-21.211,21.211s9.516,21.211,21.211,21.211c11.696,0,21.211-9.516,21.211-21.211
	S139.196,104.271,127.5,104.271z M127.5,131.694c-3.425,0-6.211-2.787-6.211-6.211s2.787-6.211,6.211-6.211
	c3.425,0,6.211,2.787,6.211,6.211S130.925,131.694,127.5,131.694z M194.351,92.261c0.567-1.933,1.101-3.849,1.561-5.728
	c5.546-22.602,2.571-39.18-8.378-46.68c-3.87-2.651-8.471-3.995-13.674-3.995c-12.948,0-29.48,8.806-46.361,23.809
	c-16.881-15.003-33.413-23.809-46.361-23.809c-5.203,0-9.804,1.344-13.674,3.995c-10.949,7.5-13.924,24.078-8.377,46.68
	c0.461,1.879,0.994,3.795,1.562,5.729c-1.915,0.624-3.797,1.267-5.607,1.948c-21.782,8.196-33.778,20.019-33.778,33.29
	c0,13.272,11.996,25.095,33.778,33.292c1.811,0.681,3.692,1.325,5.607,1.948c-0.567,1.933-1.101,3.849-1.561,5.728
	c-5.547,22.602-2.572,39.18,8.378,46.681c3.87,2.65,8.47,3.994,13.673,3.994c0.001,0,0,0,0.001,0c12.947,0,29.48-8.805,46.36-23.808
	c16.881,15.003,33.413,23.808,46.361,23.808c5.203,0,9.803-1.344,13.674-3.995c10.949-7.501,13.924-24.079,8.377-46.68
	c-0.461-1.879-0.994-3.795-1.561-5.728c1.914-0.624,3.796-1.267,5.607-1.948c21.782-8.197,33.778-20.02,33.778-33.292
	s-11.996-25.095-33.778-33.291C198.147,93.527,196.266,92.884,194.351,92.261z M173.861,50.857c2.151,0,3.851,0.448,5.197,1.37
	c5.607,3.841,6.505,17.156,0.904,36.088c-9.15-2.072-19.068-3.572-29.439-4.474c-4.004-4.879-8.074-9.46-12.165-13.711
	C152.839,57.465,165.755,50.857,173.861,50.857z M164.341,152.733c2.215-3.234,4.332-6.489,6.368-9.753
	c1.556,3.266,2.96,6.441,4.223,9.522c-3.762,0.809-7.742,1.53-11.929,2.152C163.448,154.015,163.897,153.38,164.341,152.733z
	 M163.038,100.398c4.086,0.613,8.047,1.337,11.867,2.162c-1.256,3.061-2.651,6.216-4.197,9.459c-2.035-3.264-4.153-6.52-6.368-9.753
	C163.909,101.637,163.472,101.021,163.038,100.398z M162.543,127.5c-3.141,5.434-6.656,11.032-10.577,16.757
	c-3.004,4.386-6.048,8.531-9.105,12.457c-4.92,0.287-10.044,0.44-15.362,0.44c-5.317,0-10.44-0.153-15.361-0.44
	c-3.056-3.926-6.101-8.071-9.104-12.457c-3.921-5.725-7.437-11.323-10.577-16.757c3.141-5.434,6.656-11.032,10.578-16.757
	c3.004-4.386,6.048-8.531,9.104-12.457c4.92-0.287,10.044-0.44,15.361-0.44c5.21,0,10.345,0.163,15.381,0.465
	c3.05,3.919,6.087,8.055,9.085,12.432C155.887,116.468,159.402,122.066,162.543,127.5z M75.942,52.228
	c1.346-0.922,3.046-1.37,5.197-1.37c8.105,0,21.021,6.607,35.502,19.272c-4.091,4.251-8.16,8.833-12.164,13.711
	c-10.37,0.902-20.289,2.403-29.439,4.475C69.437,69.384,70.335,56.068,75.942,52.228z M90.66,102.267
	c-2.215,3.233-4.333,6.489-6.368,9.753c-1.557-3.266-2.961-6.441-4.223-9.522c3.762-0.808,7.742-1.53,11.929-2.152
	C91.552,100.986,91.103,101.62,90.66,102.267z M91.998,154.654c-4.187-0.622-8.167-1.343-11.929-2.151
	c1.262-3.081,2.667-6.256,4.223-9.522c2.036,3.264,4.153,6.52,6.368,9.753C91.102,153.38,91.552,154.015,91.998,154.654z
	 M65.525,148.64c-18.784-6.078-29.261-14.343-29.261-21.14c0-6.797,10.477-15.062,29.262-21.14c2.738,6.898,6.037,13.99,9.828,21.14
	C71.562,134.65,68.263,141.742,65.525,148.64z M81.139,204.142c-2.152,0-3.852-0.448-5.197-1.37
	c-5.607-3.841-6.505-17.156-0.905-36.088c9.151,2.072,19.069,3.573,29.44,4.475c4.004,4.879,8.073,9.46,12.164,13.711
	C102.16,197.536,89.245,204.143,81.139,204.142z M179.059,202.772c-1.346,0.922-3.046,1.37-5.198,1.37
	c-8.105,0-21.021-6.607-35.502-19.272c4.09-4.251,8.16-8.832,12.164-13.711c10.371-0.902,20.289-2.402,29.44-4.475
	C185.563,185.616,184.666,198.931,179.059,202.772z M218.736,127.5c0,6.797-10.477,15.061-29.261,21.14
	c-2.738-6.898-6.037-13.99-9.828-21.14c3.777-7.124,7.065-14.19,9.797-21.065c1.79,0.58,3.546,1.178,5.232,1.813
	C209.517,113.832,218.736,121.21,218.736,127.5z"/>
<g>
</g>
<g>
</g>
<g>
</g>
<g>
</g>
<g>
</g>
<g>
</g>
<g>
</g>
<g>
</g>
<g>
</g>
<g>
</g>
<g>
</g>
<g>
</g>
<g>
</g>
<g>
</g>
<g>
</g>
</svg>
